<svg width="229" height="48" fill="none" xmlns="http://www.w3.org/2000/svg"><rect width="229" height="48" rx="8" fill="#2D3239" fill-opacity=".4"/><path d="M28 17l-8 7 8 7" stroke="#5A6372" stroke-linecap="round" stroke-linejoin="round"/><path d="M50.02 31V16.94h1.38v6.4h8.14v-6.4h1.4V31h-1.4v-6.42H51.4V31h-1.38zm13.525-2.7c0-2.333 2.04-3.5 6.12-3.5h.6v-.28c0-1.733-.827-2.6-2.48-2.6-1.027 0-1.98.32-2.86.96l-.62-1.04c.4-.347.926-.62 1.58-.82a6.344 6.344 0 011.98-.32c1.213 0 2.14.333 2.78 1 .653.653.98 1.607.98 2.86V31h-1.3v-1.18l.06-.84h-.04c-.28.64-.727 1.18-1.34 1.62-.6.427-1.287.64-2.06.64-.92 0-1.72-.26-2.4-.78-.667-.52-1-1.24-1-2.16zm1.38-.12c0 .507.2.953.6 1.34.4.387.953.58 1.66.58.92 0 1.66-.387 2.22-1.16a4.26 4.26 0 00.86-2.6v-.46h-.58c-.427 0-.8.007-1.12.02a9.323 9.323 0 00-1.22.16c-.494.08-.9.193-1.22.34-.32.147-.6.373-.84.68-.24.307-.36.673-.36 1.1zm8.812 1.6l.72-.94c.786.827 1.686 1.24 2.7 1.24.666 0 1.233-.167 1.7-.5.48-.347.72-.833.72-1.46 0-1.187-.814-1.78-2.44-1.78h-1.22v-1.08h1.06c.706 0 1.253-.14 1.64-.42.4-.293.6-.72.6-1.28s-.187-.98-.56-1.26c-.374-.293-.88-.44-1.52-.44-.88 0-1.7.3-2.46.9l-.6-.96c.88-.733 1.966-1.1 3.26-1.1.973 0 1.76.233 2.36.7.613.467.92 1.133.92 2 0 1.133-.514 1.9-1.54 2.3v.04c.573.147 1.033.427 1.38.84.346.413.52.94.52 1.58 0 .973-.367 1.733-1.1 2.28-.72.533-1.6.8-2.64.8-1.334 0-2.5-.487-3.5-1.46zm8.929-1.48c0-2.333 2.04-3.5 6.12-3.5h.6v-.28c0-1.733-.827-2.6-2.48-2.6-1.027 0-1.98.32-2.86.96l-.62-1.04c.4-.347.926-.62 1.58-.82a6.344 6.344 0 011.98-.32c1.213 0 2.14.333 2.78 1 .653.653.98 1.607.98 2.86V31h-1.3v-1.18l.06-.84h-.04c-.28.64-.727 1.18-1.34 1.62-.6.427-1.287.64-2.06.64-.92 0-1.72-.26-2.4-.78-.667-.52-1-1.24-1-2.16zm1.38-.12c0 .507.2.953.6 1.34.4.387.953.58 1.66.58.92 0 1.66-.387 2.22-1.16a4.26 4.26 0 00.86-2.6v-.46h-.58c-.427 0-.8.007-1.12.02a9.321 9.321 0 00-1.22.16c-.494.08-.9.193-1.22.34-.32.147-.6.373-.84.68-.24.307-.36.673-.36 1.1zm11.132 1.66h5.16V22.1h-3.52v.6c0 3.107-.547 5.487-1.64 7.14zm-2.7 0h1.24c1.173-1.533 1.76-3.953 1.76-7.26v-1.64h6.22v8.9h1.42v3.56h-1.3V31h-8.04v2.4h-1.3v-3.56zM110.323 31V20.94h1.36v4.3h5.88v-4.3h1.36V31h-1.36v-4.56h-5.88V31h-1.36zm10.956-2.7c0-2.333 2.04-3.5 6.12-3.5h.6v-.28c0-1.733-.827-2.6-2.48-2.6-1.027 0-1.98.32-2.86.96l-.62-1.04c.4-.347.927-.62 1.58-.82a6.34 6.34 0 011.98-.32c1.213 0 2.14.333 2.78 1 .653.653.98 1.607.98 2.86V31h-1.3v-1.18l.06-.84h-.04c-.28.64-.727 1.18-1.34 1.62-.6.427-1.287.64-2.06.64-.92 0-1.72-.26-2.4-.78-.667-.52-1-1.24-1-2.16zm1.38-.12c0 .507.2.953.6 1.34.4.387.953.58 1.66.58.92 0 1.66-.387 2.22-1.16a4.26 4.26 0 00.86-2.6v-.46h-.58c-.427 0-.8.007-1.12.02a9.323 9.323 0 00-1.22.16c-.493.08-.9.193-1.22.34-.32.147-.6.373-.84.68-.24.307-.36.673-.36 1.1zM137.491 31V20.94h6v1.18h-4.64V31h-1.36zm6.222.08v-1.22c.826-.133 1.433-.673 1.82-1.62.386-.96.58-2.38.58-4.26v-3.04h6.16V31h-1.36v-8.88h-3.48v1.86c0 2.373-.3 4.127-.9 5.26-.587 1.12-1.527 1.733-2.82 1.84zm10.945-2.78c0-2.333 2.04-3.5 6.12-3.5h.6v-.28c0-1.733-.827-2.6-2.48-2.6-1.027 0-1.98.32-2.86.96l-.62-1.04c.4-.347.927-.62 1.58-.82a6.34 6.34 0 011.98-.32c1.213 0 2.14.333 2.78 1 .653.653.98 1.607.98 2.86V31h-1.3v-1.18l.06-.84h-.04c-.28.64-.727 1.18-1.34 1.62-.6.427-1.287.64-2.06.64-.92 0-1.72-.26-2.4-.78-.667-.52-1-1.24-1-2.16zm1.38-.12c0 .507.2.953.6 1.34.4.387.953.58 1.66.58.92 0 1.66-.387 2.22-1.16a4.26 4.26 0 00.86-2.6v-.46h-.58c-.427 0-.8.007-1.12.02a9.323 9.323 0 00-1.22.16c-.493.08-.9.193-1.22.34-.32.147-.6.373-.84.68-.24.307-.36.673-.36 1.1zM165.87 31V20.94h3.64c1.04 0 1.853.227 2.44.68.587.44.88 1.067.88 1.88 0 1.107-.507 1.847-1.52 2.22v.04c.64.133 1.14.42 1.5.86.36.44.54.96.54 1.56 0 .867-.327 1.553-.98 2.06-.64.507-1.527.76-2.66.76h-3.84zm1.36-5.7h2.14c.667 0 1.173-.147 1.52-.44.36-.307.54-.733.54-1.28 0-1.067-.713-1.6-2.14-1.6h-2.06v3.32zm0 4.64h2.3c.813 0 1.42-.153 1.82-.46.4-.32.6-.76.6-1.32 0-.587-.213-1.033-.64-1.34-.413-.32-1.013-.48-1.8-.48h-2.28v3.6zm8.699 1.06V20.94h1.36v4.3h5.88v-4.3h1.36V31h-1.36v-4.56h-5.88V31h-1.36zm11.116 2.52c.373.307.773.46 1.2.46.8 0 1.44-.547 1.92-1.64l.6-1.44-4.18-9.96h1.5l2.94 7.34.38 1.06h.04c.093-.373.206-.727.34-1.06l2.9-7.34h1.46l-4.96 12.16c-.267.653-.654 1.167-1.16 1.54a2.774 2.774 0 01-1.72.56 2.78 2.78 0 01-.92-.16c-.294-.093-.507-.187-.64-.28l-.22-.16.52-1.08zM198.292 31V20.94h1.36v4.44h2c.133-1.347.68-2.46 1.64-3.34.96-.893 2.1-1.34 3.42-1.34 1.427 0 2.64.5 3.64 1.5s1.5 2.24 1.5 3.72c0 1.507-.5 2.773-1.5 3.8-.987 1.013-2.193 1.52-3.62 1.52-1.32 0-2.46-.44-3.42-1.32-.947-.893-1.493-2.013-1.64-3.36h-2.02V31h-1.36zm4.72-5.08c0 1.173.36 2.147 1.08 2.92.72.773 1.6 1.16 2.64 1.16 1.027 0 1.9-.387 2.62-1.16.72-.773 1.08-1.747 1.08-2.92 0-1.133-.36-2.08-1.08-2.84-.72-.773-1.593-1.16-2.62-1.16-1.04 0-1.92.387-2.64 1.16-.72.76-1.08 1.707-1.08 2.84z" fill="#5A6372"/></svg>