<svg width="24" height="24" fill="none" xmlns="http://www.w3.org/2000/svg"><path fill-rule="evenodd" clip-rule="evenodd" d="M20.473 1.933c.661.56 1.09 1.4 1.09 2.492v9.538h.062v.046h.875a.375.375 0 010 .75h-.875v2.264c0 1.547-.78 2.91-1.968 3.72l.974 1.558a.375.375 0 01-.636.398l-.991-1.585a4.482 4.482 0 01-1.88.41H6.875a4.48 4.48 0 01-2.21-.58L3.569 22.7a.375.375 0 01-.636-.398l1.112-1.78a4.491 4.491 0 01-1.67-3.498V14.76H1.5a.375.375 0 010-.75h.875v-.046h18.438V4.425c0-.88-.337-1.507-.825-1.92-.495-.42-1.17-.635-1.86-.63-.69.005-1.367.23-1.865.654a2.32 2.32 0 00-.805 1.544l.234.085a2.178 2.178 0 011.285 2.864l-.247.624.258.095c.195.07.29.284.215.477a.387.387 0 01-.49.22l-5.726-2.09a.363.363 0 01-.214-.477.388.388 0 01.49-.22l.18.066.246-.625a2.325 2.325 0 012.943-1.32l.106.038a3.054 3.054 0 011.039-1.852c.65-.554 1.505-.827 2.345-.833.841-.006 1.698.255 2.35.808zm.34 12.826H3.125v2.264a3.75 3.75 0 003.75 3.75h10.25a3.75 3.75 0 003.75-3.75v-1.876a.373.373 0 01-.062-.207v-.181zm-6.458-10.29l1.06.387a1.452 1.452 0 01.858 1.909l-.164.412-3.878-1.415.163-.413a1.55 1.55 0 011.961-.88z" fill="#434A56"/></svg>