<svg width="22" height="21" fill="none" xmlns="http://www.w3.org/2000/svg"><path fill-rule="evenodd" clip-rule="evenodd" d="M12.125 1h-2.25v2.25h2.25V1zm-3-.75V4h3.75V.25h-3.75zM20.75 8.5c0 1.096-.334 2.06-.838 2.732-.505.672-1.144 1.018-1.787 1.018s-1.282-.346-1.787-1.018c-.504-.672-.838-1.636-.838-2.732 0-1.096.334-2.06.838-2.732.505-.672 1.144-1.018 1.787-1.018s1.282.346 1.787 1.018c.504.673.838 1.636.838 2.732zm.75 0c0 2.485-1.511 4.5-3.375 4.5s-3.375-2.015-3.375-4.5S16.261 4 18.125 4 21.5 6.015 21.5 8.5zm-2.25 0c0 .71-.181 1.318-.435 1.724-.26.416-.524.526-.69.526-.166 0-.43-.11-.69-.526C17.181 9.818 17 9.21 17 8.5s.181-1.318.435-1.724c.26-.416.524-.526.69-.526.166 0 .43.11.69.526.254.406.435 1.014.435 1.724zm.75 0c0 1.657-.84 3-1.875 3-1.035 0-1.875-1.343-1.875-3s.84-3 1.875-3C19.16 5.5 20 6.843 20 8.5zM6.5 3.625h-6v16.5h.75V4.375h4.5v2.25H8v2.25h2.25v2.25h2.25v2.25h2.25v2.25H17v2.25h2.25v1.5h-4.875v.75H20v-3h-2.25v-2.25H15.5v-2.25h-2.25v-2.25H11v-2.25H8.75v-2.25H6.5v-2.25zm1.875 7.5h-4.5V16h4.5v-4.875zm0 6.375h-4.5v1.875h4.5V17.5zm-5.25-7.125v9.75h6v-9.75h-6z" fill="#434A56"/></svg>