<svg width="24" height="18" fill="none" xmlns="http://www.w3.org/2000/svg"><path fill-rule="evenodd" clip-rule="evenodd" d="M6 .75h12a1.5 1.5 0 011.5 1.5v4.5h-.75V6a2.25 2.25 0 00-2.25-2.25h-2.25A2.25 2.25 0 0012 6a2.25 2.25 0 00-2.25-2.25H7.5A2.25 2.25 0 005.25 6v.75H4.5v-4.5A1.5 1.5 0 016 .75zM3.75 6.878V2.25A2.25 2.25 0 016 0h12a2.25 2.25 0 012.25 2.25v4.628A2.25 2.25 0 0121.75 9v.128a2.25 2.25 0 011.5 2.122v3A2.25 2.25 0 0121 16.5h-.75v.75a.75.75 0 01-1.5 0v-.75H5.25v.75a.75.75 0 01-1.5 0v-.75H3a2.25 2.25 0 01-2.25-2.25v-3c0-.98.626-1.813 1.5-2.122V9c0-.98.626-1.813 1.5-2.122zm.75.622A1.5 1.5 0 003 9h18a1.5 1.5 0 00-1.5-1.5h-15zM6 6.75h5.25V6a1.5 1.5 0 00-1.5-1.5H7.5A1.5 1.5 0 006 6v.75zm6.75 0H18V6a1.5 1.5 0 00-1.5-1.5h-2.25a1.5 1.5 0 00-1.5 1.5v.75zm8.25 9H3a1.5 1.5 0 01-1.5-1.5v-3A1.5 1.5 0 013 9.75h18a1.5 1.5 0 011.5 1.5v3a1.5 1.5 0 01-1.5 1.5z" fill="#434A56"/></svg>