<svg width="24" height="24" fill="none" xmlns="http://www.w3.org/2000/svg"><path fill-rule="evenodd" clip-rule="evenodd" d="M16.125 1.5c.207 0 .375.168.375.375v.375h2.25v-.375a.375.375 0 01.75 0v.375h3V22.5H4.24L1.5 19.904v-6.058l2.25-2.132V2.25h12v-.375c0-.207.168-.375.375-.375zM18.75 3v1.125a.375.375 0 00.75 0V3h2.25v8.25h-9.188V8.455a.375.375 0 00-.75 0v2.795H4.5V3h7.313v2.352a.375.375 0 00.75 0V3h3.187v1.125a.375.375 0 00.75 0V3h2.25zM4.538 12L2.25 14.169v5.412l2.288 2.169h4.804v-7.039a.375.375 0 01.75 0v7.039h6.098v-7.039c0-.207.168-.375.375-.375h5.185V12H4.538zm17.212 9.75h-4.81v-2.77h4.81v2.77zm0-3.52h-4.81v-3.144h4.81v3.145z" fill="#434A56"/></svg>