<svg width="99" height="23" fill="none" xmlns="http://www.w3.org/2000/svg"><path d="M28.328 15.504l.528-.848c.512.363.95.544 1.312.544.341 0 .608-.123.8-.368.203-.245.405-.63.608-1.152l-4.464-8.928h1.232l3.088 6.272.64 1.472h.032c.17-.523.336-1.008.496-1.456l2.336-6.288h1.184l-3.68 9.472c-.512 1.312-1.264 1.968-2.256 1.968-.587 0-1.205-.23-1.856-.688zm12.303-3.936c-2.23 0-3.344-1.061-3.344-3.184V4.752h1.12V8.16c0 .8.186 1.397.56 1.792.384.395.992.592 1.824.592.97 0 1.893-.288 2.768-.864V4.752h1.12V16h-1.12v-4.736l.032-.528h-.032c-1.003.555-1.979.832-2.928.832zM46.617 16l4.128-11.248h1.184L56.057 16H54.89l-1.296-3.584h-4.528L47.785 16h-1.168zm2.784-4.544h3.856l-1.472-4.08-.432-1.472h-.032c-.16.63-.304 1.12-.432 1.472l-1.488 4.08zm7.588-1.152c0-1.643.528-3.008 1.584-4.096 1.067-1.099 2.422-1.648 4.064-1.648 1.696 0 3.051.485 4.064 1.456l-.592.816a4.683 4.683 0 00-1.584-.896A5.42 5.42 0 0062.67 5.6c-1.344 0-2.437.448-3.28 1.344-.832.885-1.248 2-1.248 3.344 0 1.365.422 2.517 1.264 3.456.843.939 1.947 1.408 3.312 1.408 1.408 0 2.619-.496 3.632-1.488l.64.784c-1.184 1.163-2.618 1.744-4.304 1.744-1.685 0-3.056-.56-4.112-1.68-1.056-1.13-1.584-2.533-1.584-4.208zM71.898 16V5.744h-4.032v-.992h9.184v.992h-4.048V16h-1.104zm7.046 0V4.752h1.104v4.88h1.888l3.04-4.88h1.264l-3.376 5.312v.032l3.6 5.904h-1.296l-3.232-5.376h-1.888V16h-1.104zm9.469 0V4.752h1.104v8.096l-.096 1.52h.032c.394-.661.72-1.179.976-1.552l5.696-8.064h1.072V16h-1.104V7.904l.096-1.52h-.032c-.373.64-.688 1.147-.944 1.52L89.485 16h-1.072z" fill="#5A6372"/><g filter="url(#filter0_f_115_12781)"><circle cx="11" cy="11.5" r="7" transform="rotate(90 11 11.5)" fill="#F90" fill-opacity=".1"/></g><circle cx="11" cy="11.5" r="2" transform="rotate(90 11 11.5)" fill="#E1BB83"/><defs><filter id="filter0_f_115_12781" x="0" y=".5" width="22" height="22" filterUnits="userSpaceOnUse" color-interpolation-filters="sRGB"><feFlood flood-opacity="0" result="BackgroundImageFix"/><feBlend in="SourceGraphic" in2="BackgroundImageFix" result="shape"/><feGaussianBlur stdDeviation="2" result="effect1_foregroundBlur_115_12781"/></filter></defs></svg>