<svg width="56" height="56" fill="none" xmlns="http://www.w3.org/2000/svg"><rect width="56" height="56" rx="28" fill="#1E2126"/><path d="M14.552 24.609V36a2 2 0 002 2h6.793m-8.793-13.391l4.675-2.751a2 2 0 012.029 0l4.675 2.75m-11.38 0L13 25.566m12.931-.956v-3.826m0 3.826l1.552.956m-1.552-4.782l6.71-4.136a2 2 0 012.098 0l6.71 4.136m-15.518 0l-1.552.956m17.07-.956V36a2 2 0 01-2 2H31.62m9.827-17.217l1.552.956M31.62 38v-7.493m0 7.493h-8.275m0 0v-7.493m-2.07 1.276l5.158-3.18a2 2 0 012.1 0l5.157 3.18" stroke="#fff" stroke-linecap="round" stroke-linejoin="round"/></svg>