<svg width="27" height="22" fill="none" xmlns="http://www.w3.org/2000/svg"><path fill-rule="evenodd" clip-rule="evenodd" d="M7.43 6.967C5.065 7.984 2.633 9.028.409 10.233c-1.162.837.382 1.429 1.83 1.984.23.088.458.175.672.262.178.054.36.111.543.169 1.61.504 3.406 1.067 4.97.22 2.567-1.45 4.991-3.129 7.413-4.806.793-.55 1.586-1.098 2.385-1.64.037-.023.08-.05.125-.08.68-.433 2.21-1.408 1.644-.064-1.338 1.439-2.77 2.712-4.21 3.993-.971.863-1.946 1.73-2.897 2.652-.828.662-1.688 1.993-.76 2.92a420.579 420.579 0 006.474 4.343c.705.466 1.411.933 2.115 1.401 1.194.938 3.059.18 3.321-1.285l.351-2.022c.648-3.724 1.295-7.45 1.867-11.185.078-.587.166-1.173.254-1.759.214-1.42.428-2.844.495-4.272-.172-1.426-1.93-1.113-2.907-.792-5.026 1.882-10.002 3.903-14.959 5.96-.561.244-1.13.489-1.703.735z" fill="#7447D3"/></svg>