<svg width="32" height="18" fill="none" xmlns="http://www.w3.org/2000/svg"><path fill-rule="evenodd" clip-rule="evenodd" d="M17.57 17.26s.577-.06.873-.362c.27-.276.261-.798.261-.798s-.036-2.435 1.155-2.795c1.174-.354 2.681 2.355 4.28 3.397 1.209.788 2.126.615 2.126.615l4.274-.056s2.236-.13 1.176-1.8c-.088-.136-.618-1.235-3.177-3.49-2.681-2.362-2.321-1.98.906-6.065C31.41 3.42 32.195 1.9 31.95 1.25c-.233-.62-1.68-.456-1.68-.456l-4.81.029s-.358-.047-.622.104c-.259.147-.426.49-.426.49s-.76 1.924-1.776 3.562c-2.143 3.453-3 3.636-3.35 3.422-.815-.5-.612-2.009-.612-3.08 0-3.348.536-4.744-1.04-5.105-.523-.12-.908-.199-2.247-.212-1.716-.017-3.169.006-3.992.388-.548.254-.97.821-.712.854.318.04 1.037.184 1.42.678.492.637.475 2.067.475 2.067s.283 3.94-.662 4.43c-.648.335-1.537-.35-3.448-3.484-.978-1.605-1.717-3.379-1.717-3.379s-.142-.331-.397-.51c-.309-.215-.74-.282-.74-.282l-4.57.028s-.688.018-.94.302c-.224.251-.017.773-.017.773s3.58 7.951 7.633 11.96c3.717 3.673 7.937 3.432 7.937 3.432h1.912z" fill="#7447D3"/></svg>