<svg width="972" height="1363" fill="none" xmlns="http://www.w3.org/2000/svg"><path stroke="#2D3239" d="M11.337-27l-.674 129"/><path d="M15.5 268.384H4.252v-5.904h.992v4.8H15.5v1.104zm-5.712-8.051c-1.6 0-2.955-.555-4.064-1.664-1.11-1.109-1.664-2.464-1.664-4.064s.555-2.955 1.664-4.064c1.099-1.109 2.453-1.664 4.064-1.664 1.653 0 3.05.555 4.192 1.664 1.141 1.109 1.712 2.464 1.712 4.064s-.57 2.955-1.712 4.064c-1.141 1.109-2.539 1.664-4.192 1.664zm0-1.152c1.365 0 2.517-.443 3.456-1.328.939-.896 1.408-1.979 1.408-3.248 0-1.28-.47-2.363-1.408-3.248-.939-.885-2.09-1.328-3.456-1.328-1.323 0-2.432.443-3.328 1.328-.907.885-1.36 1.968-1.36 3.248 0 1.269.453 2.352 1.36 3.248.896.885 2.005 1.328 3.328 1.328zm5.712-16.513H5.244v4.032h-.992v-9.184h.992v4.048H15.5v1.104zm-5.712-7.316c-1.6 0-2.955-.555-4.064-1.664-1.11-1.11-1.664-2.464-1.664-4.064s.555-2.955 1.664-4.064c1.099-1.11 2.453-1.664 4.064-1.664 1.653 0 3.05.554 4.192 1.664 1.141 1.109 1.712 2.464 1.712 4.064s-.57 2.954-1.712 4.064c-1.141 1.109-2.539 1.664-4.192 1.664zm0-1.152c1.365 0 2.517-.443 3.456-1.328.939-.896 1.408-1.979 1.408-3.248 0-1.28-.47-2.363-1.408-3.248-.939-.886-2.09-1.328-3.456-1.328-1.323 0-2.432.442-3.328 1.328-.907.885-1.36 1.968-1.36 3.248 0 1.269.453 2.352 1.36 3.248.896.885 2.005 1.328 3.328 1.328zm5.712-14.404H4.252v-3.84c0-.896.256-1.626.768-2.192.512-.565 1.2-.848 2.064-.848 1.152 0 1.968.475 2.448 1.424h.032a2.376 2.376 0 011.008-1.376c.512-.341 1.104-.512 1.776-.512.97 0 1.739.32 2.304.96.565.64.848 1.446.848 2.416v3.968zm-6.368-1.104v-2.736c0-.565-.181-1.024-.544-1.376-.363-.352-.837-.528-1.424-.528-.576 0-1.04.176-1.392.528-.352.342-.528.811-.528 1.408v2.704h3.888zm5.376 0v-2.88c0-.682-.197-1.221-.592-1.616-.395-.394-.928-.592-1.6-.592s-1.21.208-1.616.624c-.405.406-.608.939-.608 1.6v2.864h4.416zm.992-19.027H4.252v-1.104H15.5v1.104zm0 8.672H4.252v-1.104h4.544v-2.528c0-.981.293-1.781.88-2.4s1.419-.928 2.496-.928c1.003 0 1.808.304 2.416.912.608.597.912 1.371.912 2.32v3.728zm-.992-1.104v-2.464c0-.704-.203-1.253-.608-1.648-.416-.405-.992-.608-1.728-.608s-1.317.208-1.744.624c-.427.416-.64.965-.64 1.648v2.448h4.72zm.992-13.511H4.252v-6.32h.992v5.216H9.34v-4.272h.992v4.272h4.176v-5.52h.992v6.624zm-.992-16.938v-5.76H5.244v4h1.232c3.67 0 6.347.587 8.032 1.76zm0 2.32v-1.136c-1.013-.757-2.192-1.258-3.536-1.504-1.344-.245-2.853-.368-4.528-.368H4.252v-6.176h10.256v-1.264h3.232v1.04H15.5v8.352h2.24v1.056h-3.232zm-4.72-13.462c-1.6 0-2.955-.554-4.064-1.664-1.11-1.109-1.664-2.464-1.664-4.064s.555-2.954 1.664-4.064c1.099-1.109 2.453-1.664 4.064-1.664 1.653 0 3.05.555 4.192 1.664 1.141 1.11 1.712 2.464 1.712 4.064s-.57 2.955-1.712 4.064c-1.141 1.11-2.539 1.664-4.192 1.664zm0-1.152c1.365 0 2.517-.442 3.456-1.328.939-.896 1.408-1.978 1.408-3.248 0-1.28-.47-2.362-1.408-3.248-.939-.885-2.09-1.328-3.456-1.328-1.323 0-2.432.443-3.328 1.328-.907.886-1.36 1.968-1.36 3.248 0 1.27.453 2.352 1.36 3.248.896.886 2.005 1.328 3.328 1.328zm5.712-13.971l-11.248-.896v-1.136l6.608-2.96 1.376-.544v-.032a20.53 20.53 0 01-1.376-.544l-6.608-2.96v-1.136l11.248-.896v1.104l-7.872.624-1.568.032v.032c.661.224 1.184.421 1.568.592l5.776 2.656v1.024l-5.776 2.64-1.6.608v.032a17.5 17.5 0 011.6.032l7.872.624v1.104zm0-14.221L4.252 132.17v-1.184l11.248-4.128v1.168l-3.584 1.296v4.528l3.584 1.28v1.168zm-4.544-2.784v-3.856l-4.08 1.472-1.472.432v.032c.63.16 1.12.304 1.472.432l4.08 1.488z" fill="#434A56"/><g filter="url(#filter0_f_100_980)"><circle cx="11" cy="286" r="7" fill="#F90" fill-opacity=".1"/></g><circle cx="11" cy="286" r="2" fill="#E1BB83"/><path stroke="#2D3239" d="M11.5 318l-1 1045m480 0V-27m481 1390l-1-1390"/><defs><filter id="filter0_f_100_980" x="0" y="275" width="22" height="22" filterUnits="userSpaceOnUse" color-interpolation-filters="sRGB"><feFlood flood-opacity="0" result="BackgroundImageFix"/><feBlend in="SourceGraphic" in2="BackgroundImageFix" result="shape"/><feGaussianBlur stdDeviation="2" result="effect1_foregroundBlur_100_980"/></filter></defs></svg>