<svg width="972" height="2157" fill="none" xmlns="http://www.w3.org/2000/svg"><path stroke="#2D3239" d="M11.337 0l-.674 129"/><path d="M15.5 285.384H4.252v-1.104h5.12v-6.512h-5.12v-1.12H15.5v1.12h-5.136v6.512H15.5v1.104zm0-12.273l-11.248-4.128v-1.184l11.248-4.128v1.168l-3.584 1.296v4.528l3.584 1.28v1.168zm-4.544-2.784v-3.856l-4.08 1.472-1.472.432v.032c.63.16 1.12.304 1.472.432l4.08 1.488zm4.544-10.206H4.252v-1.104h10.256v-4.672H4.252v-1.104h10.256v-4.672H4.252v-1.12H15.5v12.672zm0-17.49H4.252v-1.104h8.096l1.52.096v-.032a30.904 30.904 0 01-1.552-.976l-8.064-5.696v-1.072H15.5v1.104H7.404l-1.52-.096v.032c.64.373 1.147.688 1.52.944l8.096 5.728v1.072zm0-19.216H4.252v-3.888c0-1.013.31-1.845.928-2.496.619-.65 1.44-.976 2.464-.976 1.035 0 1.867.326 2.496.976.63.651.944 1.483.944 2.496v2.784H15.5v1.104zm-5.408-1.104v-2.64c0-.757-.219-1.36-.656-1.808-.437-.448-1.035-.672-1.792-.672-.747 0-1.333.224-1.76.672-.427.438-.64 1.035-.64 1.792v2.656h4.848zm5.408-8.122l-11.248-4.128v-1.184l11.248-4.128v1.168l-3.584 1.296v4.528l3.584 1.28v1.168zm-4.544-2.784v-3.856l-4.08 1.472-1.472.432v.032c.63.16 1.12.304 1.472.432l4.08 1.488zM15.5 201.2H4.252v-6.368h.992v5.264h3.68v-2.688c0-.982.288-1.782.864-2.4.576-.619 1.392-.928 2.448-.928.981 0 1.77.304 2.368.912.597.597.896 1.37.896 2.32v3.888zm-.992-1.104v-2.624c0-.704-.203-1.254-.608-1.648-.405-.406-.96-.608-1.664-.608-.715 0-1.28.208-1.696.624-.416.416-.624.965-.624 1.648v2.608h4.592zm-4.72-9.244c-1.6 0-2.955-.555-4.064-1.664-1.11-1.11-1.664-2.464-1.664-4.064s.555-2.955 1.664-4.064c1.099-1.11 2.453-1.664 4.064-1.664 1.653 0 3.05.554 4.192 1.664 1.141 1.109 1.712 2.464 1.712 4.064s-.57 2.954-1.712 4.064c-1.141 1.109-2.539 1.664-4.192 1.664zm0-1.152c1.365 0 2.517-.443 3.456-1.328.939-.896 1.408-1.979 1.408-3.248 0-1.28-.47-2.363-1.408-3.248-.939-.886-2.09-1.328-3.456-1.328-1.323 0-2.432.442-3.328 1.328-.907.885-1.36 1.968-1.36 3.248 0 1.269.453 2.352 1.36 3.248.896.885 2.005 1.328 3.328 1.328zm5.712-16.513H5.244v4.032h-.992v-9.184h.992v4.048H15.5v1.104zm0-17.319H4.252v-1.104H15.5v1.104zm0 8.672H4.252v-1.104h4.544v-2.528c0-.981.293-1.781.88-2.4.587-.618 1.419-.928 2.496-.928 1.003 0 1.808.304 2.416.912.608.598.912 1.371.912 2.32v3.728zm-.992-1.104v-2.464c0-.704-.203-1.253-.608-1.648-.416-.405-.992-.608-1.728-.608s-1.317.208-1.744.624c-.427.416-.64.966-.64 1.648v2.448h4.72z" fill="#434A56"/><g filter="url(#filter0_f_629_11269)"><circle cx="11" cy="303" r="7" fill="#F90" fill-opacity=".1"/></g><circle cx="11" cy="303" r="2" fill="#E1BB83"/><path stroke="#2D3239" d="M11.5 335l-1 1822m480 0V0m481 2157l-1-2157"/><defs><filter id="filter0_f_629_11269" x="0" y="292" width="22" height="22" filterUnits="userSpaceOnUse" color-interpolation-filters="sRGB"><feFlood flood-opacity="0" result="BackgroundImageFix"/><feBlend in="SourceGraphic" in2="BackgroundImageFix" result="shape"/><feGaussianBlur stdDeviation="2" result="effect1_foregroundBlur_629_11269"/></filter></defs></svg>