<svg width="972" height="1082" fill="none" xmlns="http://www.w3.org/2000/svg"><path stroke="#D7D7C4" d="M11.337 0l-.674 129"/><path d="M15.5 277.384H4.252v-1.104h4.88v-1.888l-4.88-3.04v-1.264l5.312 3.376h.032l5.904-3.6v1.296l-5.376 3.232v1.888H15.5v1.104zm0-9.789l-11.248-4.128v-1.184l11.248-4.128v1.168l-3.584 1.296v4.528l3.584 1.28v1.168zm-4.544-2.784v-3.856l-4.08 1.472-1.472.432v.032c.63.16 1.12.304 1.472.432l4.08 1.488zm3.632-8.765c-.139-1.003-.875-1.696-2.208-2.08-1.333-.395-3.285-.592-5.856-.592H4.252v-6.176H15.5v1.12H5.244v3.984H6.54c1.43 0 2.65.053 3.664.16a14.12 14.12 0 012.768.56c.832.267 1.472.651 1.92 1.152.437.501.683 1.125.736 1.872h-1.04zm.912-13.665H4.252v-1.104h4.544v-2.56c0-.981.293-1.781.88-2.4.587-.629 1.419-.944 2.496-.944 1.003 0 1.808.304 2.416.912.608.608.912 1.387.912 2.336v3.76zm-.992-1.104v-2.496c0-.704-.203-1.253-.608-1.648-.416-.405-.992-.608-1.728-.608s-1.317.208-1.744.624c-.427.416-.64.965-.64 1.648v2.48h4.72zm.992-9.699H4.252v-1.104h4.88v-1.888l-4.88-3.04v-1.264l5.312 3.376h.032l5.904-3.6v1.296l-5.376 3.232v1.888H15.5v1.104zm-.496-10.781l-.848-.528c.363-.512.544-.949.544-1.312 0-.341-.123-.608-.368-.8-.245-.203-.63-.405-1.152-.608l-8.928 4.464v-1.232l6.272-3.088 1.472-.64v-.032a57.596 57.596 0 01-1.456-.496l-6.288-2.336v-1.184l9.472 3.68c1.312.512 1.968 1.264 1.968 2.256 0 .587-.23 1.205-.688 1.856zm-.416-9.198c-.139-1.003-.875-1.696-2.208-2.08-1.333-.395-3.285-.592-5.856-.592H4.252v-6.176H15.5v1.12H5.244v3.984H6.54c1.43 0 2.65.053 3.664.16a14.12 14.12 0 012.768.56c.832.267 1.472.651 1.92 1.152.437.501.683 1.125.736 1.872h-1.04zm.912-12.497l-4.416-2.672-.464-.304h-.032c-.224.747-.608 1.312-1.152 1.696-.555.384-1.232.576-2.032.576-.672 0-1.248-.149-1.728-.448a2.952 2.952 0 01-1.104-1.216c-.213-.48-.32-1.168-.32-2.064v-3.296H15.5v1.12h-4.736v2.496l4.736 2.832v1.28zm-5.712-4.064v-2.544H5.244v2.112c0 .715.08 1.221.24 1.52.17.352.427.629.768.832.341.192.73.288 1.168.288.715 0 1.29-.197 1.728-.592.427-.405.64-.944.64-1.616zm5.712-11.173H5.244v4.032h-.992v-9.184h.992v4.048H15.5v1.104zm-5.712-7.317c-1.6 0-2.955-.554-4.064-1.664-1.11-1.109-1.664-2.464-1.664-4.064s.555-2.954 1.664-4.064c1.099-1.109 2.453-1.664 4.064-1.664 1.653 0 3.05.555 4.192 1.664 1.141 1.11 1.712 2.464 1.712 4.064s-.57 2.955-1.712 4.064c-1.141 1.11-2.539 1.664-4.192 1.664zm0-1.152c1.365 0 2.517-.442 3.456-1.328.939-.896 1.408-1.978 1.408-3.248 0-1.28-.47-2.362-1.408-3.248-.939-.885-2.09-1.328-3.456-1.328-1.323 0-2.432.443-3.328 1.328-.907.886-1.36 1.968-1.36 3.248 0 1.27.453 2.352 1.36 3.248.896.886 2.005 1.328 3.328 1.328zm5.712-14.403H4.252v-3.888c0-1.013.31-1.845.928-2.496.619-.65 1.44-.976 2.464-.976 1.035 0 1.867.326 2.496.976.63.651.944 1.483.944 2.496v2.784H15.5v1.104zm-5.408-1.104v-2.64c0-.757-.219-1.36-.656-1.808-.437-.448-1.035-.672-1.792-.672-.747 0-1.333.224-1.76.672-.427.438-.64 1.035-.64 1.792v2.656h4.848z" fill="#434A56"/><g filter="url(#filter0_f_49_2771)"><circle cx="11" cy="295" r="7" fill="#F90" fill-opacity=".1"/></g><circle cx="11" cy="295" r="2" fill="#E1BB83"/><path stroke="#D7D7C4" d="M11.5 327l-1 755m480 0V0m481 1082l-1-1082"/><defs><filter id="filter0_f_49_2771" x="0" y="284" width="22" height="22" filterUnits="userSpaceOnUse" color-interpolation-filters="sRGB"><feFlood flood-opacity="0" result="BackgroundImageFix"/><feBlend in="SourceGraphic" in2="BackgroundImageFix" result="shape"/><feGaussianBlur stdDeviation="2" result="effect1_foregroundBlur_49_2771"/></filter></defs></svg>