<svg width="25" height="25" fill="none" xmlns="http://www.w3.org/2000/svg"><path fill-rule="evenodd" clip-rule="evenodd" d="M1.5 12.667c0 6.075 4.925 11 11 11s11-4.925 11-11-4.925-11-11-11-11 4.925-11 11zm20 0a9 9 0 11-18 0 9 9 0 0118 0zm-9 4.998a1 1 0 100-2 1 1 0 000 2zm-1-2.998h2c0-.799.125-.945.947-1.356 1.428-.714 2.053-1.443 2.053-3.144 0-2.18-1.716-3.5-4-3.5a4 4 0 00-4 4h2a2 2 0 012-2c1.277 0 2 .556 2 1.5 0 .798-.125.944-.947 1.355-1.428.714-2.053 1.443-2.053 3.145z" fill="#A9B0BC"/></svg>