<svg width="720" height="692" fill="none" xmlns="http://www.w3.org/2000/svg"><path fill="#1E2126" d="M0 0h720v692H0z"/><g opacity=".2" clip-path="url(#clip0_133_3698)" fill="#fff"><path d="M435.27 529.734h-63.205V529h62.838V390.2h.734v139.167a.37.37 0 01-.367.367zm-209.285 0h-122.27a.37.37 0 01-.367-.367V390.2h.734V529h121.903v.734z"/><path d="M191.582 238.981l-90.059 59.349v17.43h11.254v-7.038l78.805-49.266 78.31 47.797.034-19.97-78.344-48.302z" fill-opacity=".2"/><path d="M112.777 316.127h-11.259a.37.37 0 01-.367-.367v-17.435c0-.122.064-.24.167-.308l90.058-59.349a.374.374 0 01.396-.005l78.345 48.297a.375.375 0 01.176.313l-.034 19.97a.37.37 0 01-.186.319.39.39 0 01-.372-.005l-78.119-47.68-78.438 49.036v6.833a.37.37 0 01-.367.367v.014zm-10.892-.734h10.525v-6.671a.37.37 0 01.172-.314l78.799-49.265a.363.363 0 01.386 0l77.753 47.459.034-19.114-77.972-48.066-89.697 59.109v16.867-.005z"/><path d="M200.999 232.322l-99.67 65.717.404.613 99.67-65.717-.404-.613z"/><path d="M200.999 232.322l-99.67 65.717.404.613 99.67-65.717-.404-.613z"/><path d="M182.134 232.313l-.388.623 88.103 54.836.387-.624-88.102-54.835zm88.247 137.378H112.777a.37.37 0 01-.367-.368v-60.601h.734v60.234h157.232v.735h.005z"/><path d="M222.746 319.348v39.535h-64.868v-39.535h64.868zm.734-.734h-66.336v41.003h66.336v-41.003z"/><path d="M216.199 325.897v26.432h-51.77v-26.432h51.77zm.734-.734h-53.238v27.9h53.238v-27.9zm-6.356-6.182h-1.957v-.979c0-10.073-8.197-18.272-18.267-18.272s-18.266 8.199-18.266 18.272v.979h-1.957v-.979c0-11.155 9.072-20.23 20.223-20.23 11.152 0 20.224 9.075 20.224 20.23v.979z"/><path d="M190.72 297.894h-.734v20.686h.734v-20.686z"/><path d="M204.362 303.66l-14.523 14.992.527.511 14.523-14.992-.527-.511z"/><path d="M176.536 303.868l-.525.514 14.482 14.793.524-.514-14.481-14.793zm40.118 34.814h-52.68v.735h52.68v-.735z"/><path d="M190.681 325.501h-.734v27.366h.734v-27.366zm310.343 44.19H270.048a.37.37 0 01-.367-.368V258.732h.734v110.224h230.242v-17.851h.734v18.218a.37.37 0 01-.367.368zM372.065 543.65h-145.86a.37.37 0 01-.366-.367V435.701h.733v107.214h145.126V435.701h.734v107.582a.37.37 0 01-.367.367z"/><path d="M511.187 390.567H323.374v-.735H510.6l-9.81-20.141H97.261l-9.81 20.141h187.231v.735H86.863a.37.37 0 01-.332-.529l10.167-20.876a.368.368 0 01.328-.206h403.998c.142 0 .269.079.328.206l10.168 20.876a.372.372 0 01-.019.357.37.37 0 01-.314.172z"/><path d="M511.54 390.415H323.32l-.049-.029-23.164-13.084-25.371 13.108H86.516l10.378-21.312h404.262l10.379 21.312.005.005zm-188.108-.436H510.84l-9.953-20.435H97.168l-9.953 20.435h187.413l25.484-13.172.102.059 23.213 13.113h.005zm238.463 47.46H435.27v-.734h125.974l-21.441-35.443H435.27v-.735h104.738c.127 0 .25.069.313.177l21.887 36.177a.372.372 0 01.005.372.359.359 0 01-.318.186z"/><path d="M561.895 437.072H435.27v10.117h126.625v-10.117z" fill-opacity=".2"/><path d="M561.895 447.561H435.27a.37.37 0 01-.367-.367v-10.118c0-.2.167-.367.367-.367h126.625a.37.37 0 01.367.367v10.118a.37.37 0 01-.367.367zm-126.258-.734h125.891v-9.383H435.637v9.383z"/><path d="M554.6 529.817H435.27v-.734h118.963v-81.889h.734v82.256a.37.37 0 01-.367.367z"/><path d="M543.791 517.164H434.957v-58.017h108.834v58.017zm-108.1-.734h107.366v-56.549H435.691v56.549z"/><path d="M244.795 400.939H86.863V390.2h174.25l-16.318 10.739z" fill-opacity=".2"/><path d="M244.795 401.306H86.863a.37.37 0 01-.367-.367v-10.744a.37.37 0 01.367-.367h174.245a.367.367 0 01.201.675l-16.314 10.744a.37.37 0 01-.2.059zm-157.565-.735h157.457l15.198-10.009H87.23v10.009z"/><path d="M345.74 400.939h165.448V390.2H329.422l16.318 10.739z" fill-opacity=".2"/><path d="M511.188 401.306H345.735a.356.356 0 01-.2-.059l-16.314-10.744a.367.367 0 01.201-.675h181.766c.2 0 .367.166.367.367v10.744a.37.37 0 01-.367.367zm-165.34-.735h164.973v-10.009H330.65l15.198 10.009z"/><path d="M297.557 365.887l-81.544 53.735v32.383h15.624v-22.971l65.92-44.61 65.921 44.61v22.971h15.624v-32.383l-81.545-53.735z" fill-opacity=".2"/><path d="M297.557 365.887l81.545 53.735v32.379h-15.624v-22.972l-65.921-44.61-65.92 44.61v22.972h-15.624v-32.379l81.544-53.735zm0-.734a.714.714 0 00-.406.123l-81.544 53.734a.735.735 0 00-.328.612v32.379c0 .406.328.734.734.734h15.624a.733.733 0 00.734-.734v-22.58l65.186-44.111 65.187 44.111v22.58c0 .406.328.734.734.734h15.624a.733.733 0 00.734-.734v-32.379a.73.73 0 00-.328-.612l-81.544-53.734a.758.758 0 00-.407-.123zm-97.006 142.535h-69.86a.37.37 0 01-.367-.367v-43.676a.37.37 0 01.367-.367h69.86c.2 0 .367.166.367.367v43.676a.37.37 0 01-.367.367zm-69.493-.734h69.126v-42.942h-69.126v42.942z"/><path d="M193.5 501.79h-55.768a.37.37 0 01-.367-.367v-31.88c0-.2.167-.367.367-.367H193.5c.2 0 .367.167.367.367v31.88a.37.37 0 01-.367.367zm-55.401-.734h55.034V469.91h-55.034v31.146z"/><path d="M165.986 469.543h-.735v31.88h.735v-31.88z"/><path d="M193.5 485.113h-55.768v.735H193.5v-.735z"/><path d="M150.621 432.373l-5.422-4.9 20.42-19.138 20.414 19.138-5.427 4.9-14.806-14.812-15.179 14.812z" fill-opacity=".2"/><path d="M180.606 432.74a.363.363 0 01-.259-.108l-14.552-14.557-14.92 14.562a.37.37 0 01-.504.01l-5.416-4.895a.355.355 0 01-.123-.269c0-.103.04-.201.118-.269l20.419-19.139a.37.37 0 01.504 0l20.419 19.139a.37.37 0 01.117.269c0 .103-.044.2-.122.269l-5.431 4.895a.361.361 0 01-.245.093h-.005zm-34.863-5.267l4.868 4.395 14.934-14.571a.368.368 0 01.514 0l14.562 14.567 4.873-4.396-19.876-18.629-19.875 18.634z"/><path d="M180.606 451.477h-29.985a.37.37 0 01-.367-.367v-18.747c0-.098.039-.191.108-.26l14.992-14.997a.37.37 0 01.519 0l14.993 14.997a.37.37 0 01.107.26v18.747a.37.37 0 01-.367.367zm-29.618-.734h29.251v-18.229l-14.625-14.63-14.626 14.63v18.229zM422.7 504.908h-34.428a.37.37 0 01-.367-.367v-82.878a.37.37 0 01.367-.367H422.7c.2 0 .367.166.367.367v82.878a.37.37 0 01-.367.367zm-34.061-.734h33.694V422.03h-33.694v82.144z"/><path d="M417.435 500.165h-23.894a.37.37 0 01-.367-.367v-73.392a.37.37 0 01.367-.367h23.894c.2 0 .367.166.367.367v73.392a.37.37 0 01-.367.367zm-23.527-.734h23.16v-72.658h-23.16v72.658z"/><path d="M405.853 426.205h-.734v73.793h.734v-73.793z"/><path d="M417.18 451.08h-23.888v.735h23.888v-.735zm-2.5-143.279h-.734V237.88H353.53v69.921h-.734v-70.288a.37.37 0 01.367-.367h61.15a.37.37 0 01.367.367v70.288z"/><path d="M403.626 307.801h-1.296v-57.527h-37.174v57.527h-1.296v-58.178a.65.65 0 01.65-.651h38.475a.65.65 0 01.651.651v58.178h-.01z"/><path d="M535.697 351.472H308.65a.37.37 0 01-.367-.367v-43.656c0-.117.054-.225.152-.299l11.998-8.766a.374.374 0 01.215-.069h32.515v.735h-32.397l-11.749 8.585v43.103H535.33v-43.069l-35.514-15.306a.361.361 0 01-.22-.337v-54.391h.734v54.146l35.514 15.306c.137.059.22.191.22.338V351.1a.37.37 0 01-.367.367v.005z"/><path d="M536.015 307.434h-227.14v.735h227.14v-.735zM318.466 543.64H279.33a.357.357 0 01-.357-.357v-69.584c0-.201.162-.357.357-.357h39.136c.201 0 .357.161.357.357v69.584c0 .2-.161.357-.357.357zm-38.778-.72h38.416v-68.864h-38.416v68.864zm41.621-104.806h-49.754a.981.981 0 01-.978-.979c0-14.263 11.596-25.864 25.855-25.864s25.855 11.601 25.855 25.864c0 .539-.44.979-.978.979zm-48.756-1.958h47.758c-.514-12.726-11.03-22.927-23.879-22.927-12.849 0-23.36 10.196-23.879 22.927z"/><path d="M296.799 411.448h-.734v26.524h.734v-26.524z"/><path d="M314.538 418.961l-17.941 18.657.529.509 17.941-18.657-.529-.509zm-35.968.263l-.532.505 17.474 18.414.532-.506-17.474-18.413zm221.388-160.952a.367.367 0 01-.167-.695l11.612-5.864a.367.367 0 11.332.655l-11.611 5.864a.39.39 0 01-.166.04zm-240.677 9.192l-.521.517 11.023 11.104.52-.518-11.022-11.103z"/><path d="M389.788 158.154l-4.692-3.083-4.693 3.083-131.195 91.953 9.855 17.274 126.033-87.357 126.033 87.357 9.854-17.274-131.195-91.953z" fill-opacity=".2"/><path d="M385.096 155.071l4.692 3.088 131.196 91.953-9.855 17.274-126.033-87.362-126.033 87.357-9.855-17.274 131.195-91.952 4.693-3.089v.005zm0-.734a.703.703 0 00-.401.122l-4.693 3.089-131.21 91.962a.731.731 0 00-.215.964l9.855 17.274a.724.724 0 00.474.352c.054.01.108.02.162.02a.714.714 0 00.416-.132l125.612-87.073 125.617 87.068a.712.712 0 00.577.112.723.723 0 00.475-.352l9.855-17.274a.736.736 0 00-.216-.964l-131.195-91.948-4.712-3.098a.756.756 0 00-.401-.122z"/><path d="M390.996 149.455L248.994 249.807l.423.6 142.002-100.352-.423-.6z"/><path d="M390.996 149.455L248.994 249.807l.423.6 142.002-100.352-.423-.6z"/><path d="M379.24 149.406l-.422.601 142.813 100.329.422-.6-142.813-100.33zm-5.837-20.969l-.423.601 145.209 102.088.422-.601-145.208-102.088z"/><path d="M519.129 228.663l1.85 3.985-4.375-.392 2.525-3.593zm-144.162-101.35l-4.374-.392 1.849 3.989 2.525-3.597zm22.229 1.059l-150.98 106.303.423.6 150.979-106.302-.422-.601z"/><path d="M395.67 127.313l4.37-.392-1.845 3.989-2.525-3.597zM245.666 232.77l-1.85 3.984 4.374-.391-2.524-3.593zM90.24 506.396h-.734v39.985h.734v-39.985z"/><path d="M87.69 507.037l2.197-3.803 2.197 3.803H87.69zm0 38.703l2.197 3.803 2.197-3.803H87.69zm558.47-310.053h-.734v81.331h.734v-81.331z"/><path d="M643.611 236.328l2.197-3.803 2.192 3.803h-4.389zm0 80.049l2.197 3.803 2.192-3.803h-4.389zm-48.252 237.405H442.796v.734h152.563v-.734z"/><path d="M443.437 556.332l-3.802-2.198 3.802-2.197v4.395zm151.281 0l3.802-2.198-3.802-2.197v4.395zm-18.951-148.781h-.734v163.088h.734V407.551z"/><path d="M573.218 408.193l2.197-3.804 2.192 3.804h-4.389zm0 161.805l2.197 3.803 2.192-3.803h-4.389zm2.549-209.725h-.734v40.959h.734v-40.959z"/><path d="M573.218 360.914l2.197-3.803 2.192 3.803h-4.389zm0 39.672l2.197 3.803 2.192-3.803h-4.389zm-62.286-133.065l-11.334 12.095.535.502 11.335-12.095-.536-.502zm-297.756-61.908L95.231 283.172l.403.614 117.945-77.56-.403-.613z"/><path d="M211.639 204.454l4.384-.25-1.972 3.921-2.412-3.671zM94.766 281.311l-1.967 3.926 4.379-.255-2.412-3.671zm135.243-86.782l-9.322 6.131.403.613 9.323-6.13-.404-.614z"/><path d="M228.481 193.377l4.384-.254-1.972 3.925-2.412-3.671zm-8.25 5.423l-1.972 3.921 4.384-.249-2.412-3.672zm-28.891 8.928l-.216 23.856.734.006.216-23.856-.734-.006z"/><path d="M189.526 208.36l2.227-3.784 2.163 3.823-4.39-.039zm-.195 22.57l2.162 3.822 2.227-3.783-4.389-.039zm2.085-42.683l-.049 12.007.735.003.048-12.007-.734-.003z"/><path d="M189.575 188.879l2.207-3.798 2.187 3.813-4.394-.015zm-.039 10.724l2.183 3.808 2.211-3.793-4.394-.015zm-89.515 161.463h-.734v-34.273a.37.37 0 01.367-.367h8.455v.734h-8.088v33.906z"/><path d="M97.467 360.42l2.197 3.803 2.197-3.803h-4.394zm538.437 48.898h-24.818v-.734h24.451V146.26h-24.451v-.734h24.818a.37.37 0 01.367.367v263.058a.37.37 0 01-.367.367zm-312.819 11.689h-.734v23.02h.734v-23.02z"/><path d="M321.372 443.63l1.351 2.35 1.355-2.35h-2.706zm6.792-25.565h-4.11v.735h4.11v-.735z"/><path d="M327.768 419.778l2.344-1.355-2.344-1.356v2.711zm-57.353 1.229h-.734v23.02h.734v-23.02z"/><path d="M268.698 443.63l1.355 2.35 1.355-2.35h-2.71zm.014-25.565h-4.11v.734h4.11v-.734z"/><path d="M264.998 417.086l-2.348 1.351 2.348 1.356v-2.707zm307.173 19.618h-6.625v.735h6.625v-.735z"/><path d="M571.53 439.259l3.802-2.197-3.802-2.198v4.395zm47.84-2.555h-40.877v.735h40.877v-.735z"/><path d="M579.134 434.889l-3.802 2.197 3.802 2.198v-4.395zM344.346 290.21H324.47v-.735h19.509v-46.47h.734v46.838a.37.37 0 01-.367.367z"/><path d="M342.163 243.646l2.192-3.803 2.197 3.803h-4.389zm-17.052 44.009l-3.802 2.197 3.802 2.198v-4.395zm88.693 227.072h-.734v11.414h.734v-11.414z"/><path d="M411.984 515.152l1.463-2.535 1.463 2.535h-2.926zm1.82 17.494h-.734v11.415h.734v-11.415z"/><path d="M411.984 533.072l1.463-2.535 1.463 2.535h-2.926zm0-7.357l1.463 2.536 1.463-2.536h-2.926zm71.572 7.959h-.734v17.93h.734v-17.93z"/><path d="M481.731 534.105l1.463-2.54 1.463 2.54h-2.926zm0 17.068l1.463 2.54 1.463-2.54h-2.926zm1.825 5.771h-.734v4.229h.734v-4.229z"/><path d="M481.731 557.375l1.463-2.536 1.463 2.536h-2.926zm0 3.372l1.463 2.536 1.463-2.536h-2.926zm-365.812-28.013h-.734v14.249h.734v-14.249z"/><path d="M114.094 533.165l1.468-2.54 1.463 2.54h-2.931zm0 13.387l1.468 2.541 1.463-2.541h-2.931zm1.825-25.697h-.734v5.071h.734v-5.071z"/><path d="M114.094 521.286l1.468-2.541 1.463 2.541h-2.931zm0 4.209l1.468 2.536 1.463-2.536h-2.931zm30.983 7.239h-.734v14.249h.734v-14.249z"/><path d="M143.257 533.165l1.463-2.54 1.463 2.54h-2.926zm0 13.387l1.463 2.541 1.463-2.541h-2.926zm1.82-25.697h-.734v5.071h.734v-5.071z"/><path d="M143.257 521.286l1.463-2.541 1.463 2.541h-2.926zm0 4.209l1.463 2.536 1.463-2.536h-2.926zm31.204 7.239h-.735v14.249h.735v-14.249z"/><path d="M172.64 533.165l1.463-2.54 1.463 2.54h-2.926zm0 13.387l1.463 2.541 1.463-2.541h-2.926zm1.821-25.697h-.735v5.071h.735v-5.071z"/><path d="M172.64 521.286l1.463-2.541 1.463 2.541h-2.926zm0 4.209l1.463 2.536 1.463-2.536h-2.926zm31.179 7.239h-.734v14.249h.734v-14.249z"/><path d="M201.999 533.165l1.463-2.54 1.463 2.54h-2.926zm0 13.387l1.463 2.541 1.463-2.541h-2.926zm1.82-25.697h-.734v5.071h.734v-5.071z"/><path d="M201.999 521.286l1.463-2.541 1.463 2.541h-2.926zm0 4.209l1.463 2.536 1.463-2.536h-2.926zm214.834-318.153l-1.483-1.278c.7-.812 1.375-1.664 2.011-2.53l1.581 1.155c-.661.91-1.37 1.801-2.104 2.658l-.005-.005zm-31.737 14.562c-1.267 0-2.545-.059-3.797-.172l.176-1.948c2.084.186 4.233.211 6.322.074l.132 1.953c-.935.063-1.889.093-2.833.093zm9.39-1.058l-.436-1.909a39.412 39.412 0 006.029-1.899l.734 1.816a42.118 42.118 0 01-6.322 1.992h-.005zm-19.724-.23a41.725 41.725 0 01-6.278-2.139l.778-1.796a39.87 39.87 0 005.979 2.041l-.479 1.899v-.005zm31.971-4.733l-1.013-1.674a39.613 39.613 0 005.133-3.691l1.263 1.493a42.95 42.95 0 01-5.383 3.872zm-44.106-.514a42.25 42.25 0 01-5.295-3.994l1.297-1.464a40.402 40.402 0 005.045 3.809l-1.052 1.649h.005zm-9.904-8.786a43.826 43.826 0 01-2.046-2.707l1.61-1.116a41.59 41.59 0 001.948 2.58l-1.512 1.243zM97.858 420.547h-.734v-10.852h-15.8v-.734h16.167c.2 0 .367.166.367.367v11.219z"/><path d="M81.965 407.145l-3.802 2.193 3.802 2.198v-4.391zm127.266-134.282l-.778-.592c.387-.51.754-1.043 1.092-1.581l.832.518a23.724 23.724 0 01-1.141 1.655h-.005zm-17.649 8.761c-.593 0-1.189-.024-1.782-.068l.079-.974c1.174.093 2.368.088 3.533-.01l.083.974c-.636.054-1.282.083-1.918.083l.005-.005zm-5.427-.67a21.646 21.646 0 01-3.499-1.204l.397-.896c1.076.475 2.202.861 3.342 1.15l-.24.95zm10.99-.034l-.245-.95c1.14-.294 2.261-.69 3.333-1.17l.401.896a22.105 22.105 0 01-3.489 1.224zm-17.733-2.937a21.843 21.843 0 01-2.906-2.286l.665-.715a20.919 20.919 0 002.78 2.183l-.539.818zm24.461-.074l-.543-.812a20.955 20.955 0 002.765-2.198l.67.715a22.082 22.082 0 01-2.892 2.3v-.005zm-29.872-4.948a21.585 21.585 0 01-1.15-1.65l.827-.524c.342.539.714 1.067 1.101 1.572l-.778.597v.005zM71.063 396.073h-2.735v-.734h2.735v.734zm-5.465 0h-2.736v-.734h2.736v.734zm-5.466 0h-2.735v-.734h2.735v.734zm-5.466 0h-2.735v-.734h2.735v.734zm-5.465 0h-2.736v-.734h2.736v.734zm-4.708-.759h-.734v-2.736h.734v2.736zm0-5.467h-.734v-2.736h.734v2.736zm0-5.467h-.734v-2.737h.734v2.737zm0-5.468h-.734v-2.736h.734v2.736zm0-5.467h-.734v-2.736h.734v2.736zm0-5.468h-.734v-2.736h.734v2.736zm0-5.467h-.734v-2.736h.734v2.736zm0-5.467h-.734v-2.737h.734v2.737zm0-5.468h-.734v-2.736h.734v2.736zm0-5.467h-.734v-2.736h.734v2.736zm0-5.468h-.734v-2.736h.734v2.736zm0-5.467h-.734v-2.736h.734v2.736zm0-5.468h-.734v-2.736h.734v2.736zm0-5.467h-.734v-1.219h-.782v-.734h1.15c.2 0 .366.166.366.367v1.586zm-4.247-1.219h-.822v-.734h.822v.734z"/><path d="M70.422 393.518l3.802 2.198-3.802 2.198v-4.396zm-31.008-65.677H13.153a.37.37 0 01-.367-.368v-11.869a.37.37 0 01.367-.367h26.261c.2 0 .367.166.367.367v11.869a.37.37 0 01-.367.368zm-25.894-.735h25.527v-11.135H13.52v11.135zm19.533 53.901H6.792a.37.37 0 01-.367-.367v-11.87c0-.2.166-.367.367-.367h26.261c.2 0 .367.167.367.367v11.87a.37.37 0 01-.367.367zm-25.894-.734h25.527v-11.136H7.16v11.136zm80.37 59.393h-3.866v-.734h3.866v.734zm-7.731 0h-3.866v-.734h3.865v.734zm-7.732 0h-3.865v-.734h3.865v.734zm-7.73 0H60.47v-.734h3.865v.734zm-7.732 0h-3.866v-.734h3.866v.734zm-7.731 0h-3.866v-.734h3.866v.734zm-7.731 0h-3.866v-.734h3.866v.734zm-7.732 0h-3.865v-.734h3.865v.734zm-7.144-.588h-.733v-3.866h.733v3.866zm0-7.733h-.733v-3.867h.733v3.867zm0-7.734h-.733v-3.867h.733v3.867zm0-7.734h-.733v-3.866h.733v3.866zm0-7.733h-.733v-3.867h.733v3.867zm0-7.734h-.733v-3.867h.733v3.867zm0-7.734h-.733v-3.867h.733v3.867zm0-7.733h-.733v-3.867h.733v3.867zm63.308 56.539l3.802-2.193-3.802-2.198v4.391z"/><path d="M26.267 361.575h-.735v-3.167h.735v3.167zm0-7.034h-.735v-3.867h.735v3.867zm0-7.733h-.735v-3.867h.735v3.867zm0-7.734h-.735v-3.867h.735v3.867zm0-7.734h-.735v-3.867h.735v3.867z"/><path d="M23.717 360.934l2.192 3.803 2.197-3.803h-4.389zm371.586-79.559h-23.037a.37.37 0 01-.367-.367v-23.471c0-.2.166-.367.367-.367h5.221a7.102 7.102 0 015.701-2.878 7.101 7.101 0 015.7 2.878h6.42c.2 0 .367.167.367.367v23.471a.37.37 0 01-.367.367h-.005zm-22.67-.734h22.303v-22.737h-6.239a.374.374 0 01-.303-.156 6.36 6.36 0 00-5.211-2.722 6.368 6.368 0 00-5.212 2.722.367.367 0 01-.303.156h-5.04v22.737h.005zm22.66 22.378h-23.027a.37.37 0 01-.367-.367v-15.585c0-.2.166-.367.367-.367h23.027a.37.37 0 01.367.367v15.585a.37.37 0 01-.367.367zm-22.66-.734h22.293v-14.851h-22.293v14.851zM216.38 284.899h-.734v34.121h.734v-34.121zm-51.006 0h-.734v34.121h.734v-34.121z"/><path d="M221.376 288.976h-61.757v.734h61.757v-.734z"/><path d="M160.045 290.802l-2.534-1.464 2.534-1.468v2.932zm60.9 0l2.535-1.464-2.535-1.468v2.932zm240.841-132.08h-57.631v.735h57.631v-.735z"/><path d="M404.801 161.277l-3.807-2.197 3.807-2.198v4.395zm56.344 0l3.802-2.197-3.802-2.198v4.395zm-94.565-2.555h-60.802v.735h60.802v-.735z"/><path d="M365.939 156.906l3.802 2.198-3.802 2.198v-4.396zm-59.52 0l-3.802 2.198 3.802 2.198v-4.396zm-25.811 151.028h-1.312v.734h1.312v-.734zm13.642.734h-2.276v-.734h2.276v.734zm-4.546 0h-2.275v-.734h2.275v.734zm-4.546 0h-2.275v-.734h2.275v.734zm12.674-.734h-1.312v.734h1.312v-.734z"/><path d="M279.722 309.754l-2.535-1.463 2.535-1.464v2.927zm17.679 0l2.539-1.463-2.539-1.464v2.927zm-8.47-52.677h-.734v1.312h.734v-1.312zm0 98.478h-.734V353h.734v2.555zm0-5.115h-.734v-2.555h.734v2.555zm0-5.115h-.734v-2.555h.734v2.555zm0-5.115h-.734v-2.555h.734v2.555zm0-5.115h-.734v-2.555h.734v2.555zm0-5.115h-.734v-2.556h.734v2.556zm0-5.115h-.734v-2.555h.734v2.555zm0-5.115h-.734v-2.556h.734v2.556zm0-5.115h-.734v-2.556h.734v2.556zm0-5.115h-.734v-2.556h.734v2.556zm0-5.115h-.734v-2.556h.734v2.556zm0-5.115h-.734v-2.556h.734v2.556zm0-5.115h-.734v-2.556h.734v2.556zm0-5.115h-.734v-2.556h.734v2.556zm0-5.115h-.734v-2.556h.734v2.556zm0-5.115h-.734v-2.556h.734v2.556zm0-5.115h-.734v-2.556h.734v2.556zm0-5.116h-.734v-2.555h.734v2.555zm0-5.115h-.734v-2.555h.734v2.555zm0 94.631h-.734v1.311h.734v-1.311z"/><path d="M287.106 257.508l1.468-2.535 1.463 2.535h-2.931zm0 101.488l1.468 2.535 1.463-2.535h-2.931zm309.36 97.62h-1.968v.734h1.968v-.734zm13.573.734h-3.396v-.734h3.396v.734zm-6.787 0h-3.396v-.734h3.396v.734zm12.512 1.601h-.734v-1.601h-1.6v-.734h1.967a.37.37 0 01.367.367v1.968zm0 70.494h-.734v-3.916h.734v3.916zm0-7.831h-.734v-3.916h.734v3.916zm0-7.832h-.734v-3.916h.734v3.916zm0-7.832h-.734v-3.915h.734v3.915zm0-7.831h-.734v-3.916h.734v3.916zm0-7.832h-.734v-3.916h.734v3.916zm0-7.831h-.734v-3.916h.734v3.916zm0-7.832h-.734v-3.916h.734v3.916zm0-7.832h-.734v-3.915h.734v3.915zm-.367 68.899h-1.967v-.734h1.6v-1.601h.734v1.968a.37.37 0 01-.367.367zm-5.358 0h-3.396v-.734h3.396v.734zm-6.787 0h-3.396v-.734h3.396v.734zm-6.786-.734h-1.968v.734h1.968v-.734zM484.843 265.849l-2.09-1.581.441-.588 2.089 1.581-.44.588zm-4.179-3.157l-2.089-1.581.44-.588 2.089 1.581-.44.588zm-4.179-3.158l-2.089-1.581.44-.587 2.09 1.581-.441.587zm-4.178-3.157l-2.09-1.581.441-.587 2.089 1.581-.44.587zm-4.179-3.157l-2.09-1.581.441-.587 2.089 1.581-.44.587zm-4.184-3.157l-2.089-1.581.44-.587 2.09 1.581-.441.587zm-4.184-3.157l-2.089-1.581.44-.587 2.09 1.581-.441.587zm-4.178-3.157l-2.09-1.581.441-.588 2.089 1.581-.44.588zm-4.179-3.157l-2.089-1.581.44-.588 2.089 1.581-.44.588zm-4.13-2.58h-2.618v-.734h2.618v.734zm-5.24 0h-2.618v-.734h2.618v.734zm-5.241 0h-2.618v-.734h2.618v.734z"/><path d="M485.596 264.135l1.145 2.697-2.906-.357 1.761-2.34zm-52.131-27.958l-2.535 1.463 2.535 1.464v-2.927zM596.01 351.59h-53.232a.37.37 0 01-.367-.367v-39.525h.734v39.158h52.865v.734z"/><path d="M595.58 349.769l2.534 1.464-2.534 1.463v-2.927zm-51.349-37.641l-1.463-2.54-1.463 2.54h2.926zm31.659 39.095h-2.32c0-1.121-.059-2.247-.181-3.348l2.305-.25c.127 1.185.196 2.398.196 3.603v-.005zm-3.709-9.173a30.807 30.807 0 00-2.31-5.477l2.041-1.106a33.117 33.117 0 012.485 5.888l-2.216.69v.005zm-5.632-10.406a31.34 31.34 0 00-4.204-4.205l1.473-1.791a33.423 33.423 0 014.517 4.518l-1.791 1.473.005.005zm-9.131-7.528a30.681 30.681 0 00-5.471-2.311l.69-2.217a32.608 32.608 0 015.887 2.487l-1.106 2.041zm-11.293-3.515a31.799 31.799 0 00-3.347-.181v-2.32c1.203 0 2.417.064 3.601.196l-.25 2.305h-.004zm-32.329 21.659h-.734v1.366h.734v-1.366zm0-2.633h-.734v-2.633h.734v2.633zm0-5.272h-.734v-2.633h.734v2.633zm0-5.271h-.734v-2.634h.734v2.634zm0-5.272h-.734v-2.633h.734v2.633zm0-6.627h-.734v1.365h.734v-1.365z"/><path d="M514.882 343.2l-1.463 2.536-1.463-2.536h2.926zm0-25.589l-1.463-2.536-1.463 2.536h2.926zM403.46 342.26h-.734v1.366h.734v-1.366zm0-2.633h-.734v-2.633h.734v2.633zm0-5.272h-.734v-2.633h.734v2.633zm0-5.271h-.734v-2.634h.734v2.634zm0-5.272h-.734v-2.633h.734v2.633zm0-6.627h-.734v1.365h.734v-1.365z"/><path d="M404.551 343.2l-1.468 2.536-1.463-2.536h2.931zm0-25.589l-1.468-2.536-1.463 2.536h2.931zm-41.039 24.649h-.734v1.366h.734v-1.366zm0-2.633h-.734v-2.633h.734v2.633zm0-5.272h-.734v-2.633h.734v2.633zm0-5.271h-.734v-2.634h.734v2.634zm0-5.272h-.734v-2.633h.734v2.633zm0-6.627h-.734v1.365h.734v-1.365z"/><path d="M364.598 343.2l-1.463 2.536-1.463-2.536h2.926zm0-25.589l-1.463-2.536-1.463 2.536h2.926zM330.41 342.26h-.734v1.366h.734v-1.366zm0-2.633h-.734v-2.633h.734v2.633zm0-5.272h-.734v-2.633h.734v2.633zm0-5.271h-.734v-2.634h.734v2.634zm0-5.272h-.734v-2.633h.734v2.633zm0-6.627h-.734v1.365h.734v-1.365z"/><path d="M331.496 343.2l-1.463 2.536-1.463-2.536h2.926zm0-25.589l-1.463-2.536-1.463 2.536h2.926zm194.988-67.949h-1.224v.734h1.224v-.734zm105.212.734h-2.471v-.734h2.471v.734zm-4.942 0h-2.471v-.734h2.471v.734zm-5.921 0h-2.471v-.734h2.471v.734zm-5.431 0h-2.471v-.734h2.471v.734zm-4.942 0h-2.471v-.734h2.471v.734zm-4.942 0h-2.471v-.734h2.471v.734zm-4.942 0h-2.472v-.734h2.472v.734zm-4.943 0h-2.471v-.734h2.471v.734zm-4.942 0h-2.471v-.734h2.471v.734zm-4.942 0h-2.471v-.734h2.471v.734zm-4.942 0h-2.471v-.734h2.471v.734zm-4.942 0h-2.471v-.734h2.471v.734zm-4.942 0h-2.471v-.734h2.471v.734zm-4.942 0h-2.471v-.734h2.471v.734zm-4.942 0h-2.471v-.734h2.471v.734zm-4.942 0h-2.471v-.734h2.471v.734zm-4.942 0h-2.471v-.734h2.471v.734zm-4.942 0h-2.471v-.734h2.471v.734zm-4.942 0H538.8v-.734h2.471v.734zm-4.943 0h-2.471v-.734h2.471v.734zm-4.942 0h-2.471v-.734h2.471v.734zm104-.734h-1.224v.734h1.224v-.734zm-108.902-94.958h-1.224v.734h1.224v-.734zm105.212.734h-2.471v-.734h2.471v.734zm-4.942 0h-2.471v-.734h2.471v.734zm-6.41 0h-2.471v-.734h2.471v.734zm-4.942 0h-2.471v-.734h2.471v.734zm-4.942 0h-2.471v-.734h2.471v.734zm-4.942 0h-2.471v-.734h2.471v.734zm-4.942 0h-2.472v-.734h2.472v.734zm-4.943 0h-2.471v-.734h2.471v.734zm-4.942 0h-2.471v-.734h2.471v.734zm-4.942 0h-2.471v-.734h2.471v.734zm-4.942 0h-2.471v-.734h2.471v.734zm-4.942 0h-2.471v-.734h2.471v.734zm-4.942 0h-2.471v-.734h2.471v.734zm-4.942 0h-2.471v-.734h2.471v.734zm-4.942 0h-2.471v-.734h2.471v.734zm-4.942 0h-2.471v-.734h2.471v.734zm-4.942 0h-2.471v-.734h2.471v.734zm-4.942 0h-2.471v-.734h2.471v.734zm-4.942 0H538.8v-.734h2.471v.734zm-4.943 0h-2.471v-.734h2.471v.734zm-4.942 0h-2.471v-.734h2.471v.734zm104-.734h-1.224v.734h1.224v-.734zm-108.902 23h-1.224v.734h1.224v-.734zm105.212.734h-2.471v-.734h2.471v.734zm-4.942 0h-2.471v-.734h2.471v.734zm-6.41 0h-2.471v-.734h2.471v.734zm-4.942 0h-2.471v-.734h2.471v.734zm-4.942 0h-2.471v-.734h2.471v.734zm-4.942 0h-2.471v-.734h2.471v.734zm-4.942 0h-2.472v-.734h2.472v.734zm-4.943 0h-2.471v-.734h2.471v.734zm-4.942 0h-2.471v-.734h2.471v.734zm-4.942 0h-2.471v-.734h2.471v.734zm-4.942 0h-2.471v-.734h2.471v.734zm-4.942 0h-2.471v-.734h2.471v.734zm-4.942 0h-2.471v-.734h2.471v.734zm-4.942 0h-2.471v-.734h2.471v.734zm-4.942 0h-2.471v-.734h2.471v.734zm-4.942 0h-2.471v-.734h2.471v.734zm-4.942 0h-2.471v-.734h2.471v.734zm-4.942 0h-2.471v-.734h2.471v.734zm-4.942 0H538.8v-.734h2.471v.734zm-4.943 0h-2.471v-.734h2.471v.734zm-4.942 0h-2.471v-.734h2.471v.734zm104-.734h-1.224v.734h1.224v-.734zM526.484 291.267h-1.224v.734h1.224v-.734zm105.212.734h-2.471v-.734h2.471v.734zm-4.942 0h-2.471v-.734h2.471v.734zm-6.41 0h-2.471v-.734h2.471v.734zm-4.942 0h-2.471v-.734h2.471v.734zm-4.942 0h-2.471v-.734h2.471v.734zm-4.942 0h-2.471v-.734h2.471v.734zm-4.942 0h-2.472v-.734h2.472v.734zm-4.943 0h-2.471v-.734h2.471v.734zm-4.942 0h-2.471v-.734h2.471v.734zm-4.942 0h-2.471v-.734h2.471v.734zm-4.942 0h-2.471v-.734h2.471v.734zm-4.942 0h-2.471v-.734h2.471v.734zm-4.942 0h-2.471v-.734h2.471v.734zm-4.942 0h-2.471v-.734h2.471v.734zm-4.942 0h-2.471v-.734h2.471v.734zm-4.942 0h-2.471v-.734h2.471v.734zm-4.942 0h-2.471v-.734h2.471v.734zm-4.942 0h-2.471v-.734h2.471v.734zm-4.942 0H538.8v-.734h2.471v.734zm-4.943 0h-2.471v-.734h2.471v.734zm-4.942 0h-2.471v-.734h2.471v.734zm104-.734h-1.224v.734h1.224v-.734zm-391.36 245.339h-1.747v-.734h1.747v.734zm-4.364 0h-2.618v-.734h2.618v.734zm-5.241 0h-2.618v-.734h2.618v.734zm-5.24 0h-2.618v-.734h2.618v.734zm8.734-8.732h-.876v-.734h.876v.734zm-3.494 0h-2.618v-.734h2.618v.734zm-5.24 0h-2.618v-.734h2.618v.734zm14.845-8.737h-1.747v-.734h1.747v.734zm-4.364 0h-2.618v-.734h2.618v.734zm-5.241 0h-2.618v-.734h2.618v.734zm-5.24 0h-2.618v-.734h2.618v.734zm8.734-8.737h-.876v-.735h.876v.735zm-3.494 0h-2.618v-.735h2.618v.735zm-5.24 0h-2.618v-.735h2.618v.735zm14.845-8.733h-1.747v-.734h1.747v.734zm-4.364 0h-2.618v-.734h2.618v.734zm-5.241 0h-2.618v-.734h2.618v.734zm-5.24 0h-2.618v-.734h2.618v.734zm8.734-8.737h-.876v-.734h.876v.734zm-3.494 0h-2.618v-.734h2.618v.734zm-5.24 0h-2.618v-.734h2.618v.734zm14.845-8.737h-1.747v-.734h1.747v.734zm-4.364 0h-2.618v-.734h2.618v.734zm-5.241 0h-2.618v-.734h2.618v.734zm-5.24 0h-2.618v-.734h2.618v.734zm8.734-8.732h-.876v-.734h.876v.734zm-3.494 0h-2.618v-.734h2.618v.734zm-5.24 0h-2.618v-.734h2.618v.734zm14.845-8.737h-1.747v-.734h1.747v.734zm-4.364 0h-2.618v-.734h2.618v.734zm-5.241 0h-2.618v-.734h2.618v.734zm-5.24 0h-2.618v-.734h2.618v.734zm142.341 69.882h-1.747v-.734h1.747v.734zm-4.364 0h-2.618v-.734h2.618v.734zm-5.241 0h-2.618v-.734h2.618v.734zm-5.241 0h-2.617v-.734h2.617v.734zm13.975-8.732h-2.618v-.734h2.618v.734zm-5.24 0h-2.618v-.734h2.618v.734zm6.111-8.737h-1.747v-.734h1.747v.734zm-4.364 0h-2.618v-.734h2.618v.734zm-5.241 0h-2.618v-.734h2.618v.734zm-5.241 0h-2.617v-.734h2.617v.734zm13.975-8.737h-2.618v-.735h2.618v.735zm-5.24 0h-2.618v-.735h2.618v.735zm6.111-8.733h-1.747v-.734h1.747v.734zm-4.364 0h-2.618v-.734h2.618v.734zm-5.241 0h-2.618v-.734h2.618v.734zm-5.241 0h-2.617v-.734h2.617v.734zm13.975-8.737h-2.618v-.734h2.618v.734zm-5.24 0h-2.618v-.734h2.618v.734zm6.111-8.737h-1.747v-.734h1.747v.734zm-4.364 0h-2.618v-.734h2.618v.734zm-5.241 0h-2.618v-.734h2.618v.734zm-5.241 0h-2.617v-.734h2.617v.734zm13.975-8.732h-2.618v-.734h2.618v.734zm-5.24 0h-2.618v-.734h2.618v.734zm6.111-8.737h-1.747v-.734h1.747v.734zm-4.364 0h-2.618v-.734h2.618v.734zm-5.241 0h-2.618v-.734h2.618v.734zm-5.241 0h-2.617v-.734h2.617v.734zm167.615-136.686H403.367v.734h120.924v-.734z"/><path d="M523.866 331.859l2.534-1.463-2.534-1.464v2.927zm-160.897-1.821h-39.972v.734h39.972v-.734z"/><path d="M323.423 328.952l-2.535 1.463 2.535 1.464v-2.927zm295.13 224.83h-15.839v.734h15.839v-.734z"/><path d="M603.36 556.332l-3.802-2.198 3.802-2.197v4.395zm14.552 0l3.802-2.198-3.802-2.197v4.395zm-17.723-152.31h-44.033v.735h44.033v-.735z"/><path d="M556.797 406.572l-3.802-2.192 3.802-2.198v4.39zM92.789 368.956H80.32v.735h12.468v-.735z"/><path d="M80.962 367.14l-3.802 2.193 3.802 2.198v-4.391zm11.827-68.756H80.32v.734h12.468v-.734z"/><path d="M80.962 296.568l-3.802 2.198 3.802 2.193v-4.391zm-9.899 72.388H56.15v.735h14.914v-.735z"/><path d="M70.422 371.507l3.802-2.193-3.802-2.198v4.391zm.641-73.123H56.15v.734h14.914v-.734z"/><path d="M70.422 300.934l3.802-2.193-3.802-2.197v4.39zM90.24 496.636h-.734v-29.912H76.67a.37.37 0 01-.367-.367l-.49-178.879h.735l.489 178.512h12.835c.2 0 .367.166.367.367v30.279z"/><path d="M87.69 495.99l2.197 3.808 2.197-3.808H87.69zm-16.627-87.029h-8.641v.734h8.641v-.734z"/><path d="M70.422 407.145l3.802 2.193-3.802 2.198v-4.391zm143.203-70.176h-20.624a.121.121 0 01-.123-.122v-9.031c0-.068.054-.122.123-.122h20.624c.069 0 .123.054.123.122v9.031a.121.121 0 01-.123.122zm-20.502-.245h20.38v-8.786h-20.38v8.786zm-5.495.245h-20.625a.121.121 0 01-.122-.122v-9.031c0-.068.054-.122.122-.122h20.625c.068 0 .122.054.122.122v9.031a.121.121 0 01-.122.122zm-20.502-.245h20.38v-8.786h-20.38v8.786zm46.499 13.681h-20.624a.121.121 0 01-.123-.122v-9.031c0-.068.054-.122.123-.122h20.624c.069 0 .123.054.123.122v9.031a.121.121 0 01-.123.122zm-20.502-.244h20.38v-8.787h-20.38v8.787zm-5.495.244h-20.625a.121.121 0 01-.122-.122v-9.031c0-.068.054-.122.122-.122h20.625c.068 0 .122.054.122.122v9.031a.121.121 0 01-.122.122zm-20.502-.244h20.38v-8.787h-20.38v8.787zm23.624 133.42h-22.905a.12.12 0 01-.122-.122v-11.038a.12.12 0 01.122-.122h22.905c.068 0 .122.054.122.122v11.038a.12.12 0 01-.122.122zm-22.783-.244h22.66v-10.793h-22.66v10.793zm-4.575.244h-22.905a.12.12 0 01-.122-.122v-11.038c0-.068.054-.122.122-.122h22.905a.12.12 0 01.122.122v11.038a.12.12 0 01-.122.122zm-22.782-.244h22.66v-10.793h-22.66v10.793zm50.14 15.33h-22.905a.12.12 0 01-.122-.122v-11.038a.12.12 0 01.122-.122h22.905a.12.12 0 01.122.122v11.038a.121.121 0 01-.122.122zm-22.783-.245h22.66v-10.793h-22.66v10.793zm-4.575.245h-22.905a.121.121 0 01-.122-.122v-11.038a.12.12 0 01.122-.122h22.905a.12.12 0 01.122.122v11.038a.12.12 0 01-.122.122zm-22.782-.245h22.66v-10.793h-22.66v10.793zm169.122 41.757h-21.824a.242.242 0 01-.245-.244v-56.471c0-.137.108-.245.245-.245h3.895a7.126 7.126 0 017.017-5.781 7.126 7.126 0 017.017 5.781h3.895c.137 0 .244.108.244.245v56.471a.241.241 0 01-.244.244zm-21.579-.489h21.334v-55.981h-3.856a.247.247 0 01-.24-.206 6.638 6.638 0 00-6.571-5.575 6.643 6.643 0 00-6.572 5.575.245.245 0 01-.239.206h-3.856v55.981zm115.008-42.129h-7.339a.122.122 0 01-.123-.123v-43.475c0-.068.054-.122.123-.122h7.339c.069 0 .123.054.123.122v43.475a.122.122 0 01-.123.123zm-7.217-.245h7.095v-43.23h-7.095v43.23zm19.206.245h-7.34a.12.12 0 01-.122-.123v-43.475a.12.12 0 01.122-.122h7.34c.068 0 .122.054.122.122v43.475a.121.121 0 01-.122.123zm-7.218-.245h7.095v-43.23h-7.095v43.23zm-4.771-48.306h-7.339a.085.085 0 01-.083-.083v-20.372c0-.044.039-.083.083-.083h7.339c.044 0 .084.039.084.083v20.372c0 .044-.04.083-.084.083zm-7.256-.167h7.173v-20.205h-7.173v20.205zm19.245.167h-7.34a.085.085 0 01-.083-.083v-20.372c0-.044.039-.083.083-.083h7.34c.044 0 .083.039.083.083v20.372a.085.085 0 01-.083.083zm-7.257-.167h7.173v-20.205h-7.173v20.205zM99.649 501.496H76.181v.734H99.65v-.734zm244.535-28.164h-22.753v.734h22.753v-.734zm-3.337 2.34h-.734v72.398h.734v-72.398z"/><path d="M341.933 547.644l-1.463 2.535-1.463-2.535h2.926zm0-71.547l-1.463-2.535-1.463 2.535h2.926zm-1.086-13.857h-.734v9.349h.734v-9.349z"/><path d="M341.933 471.163l-1.463 2.536-1.463-2.536h2.926zm30.499 79.398h-53.873v.734h53.873v-.734zm-31.585 3.945h-.734v9.349h.734v-9.349z"/><path d="M339.027 554.932l1.463-2.535 1.463 2.535h-2.926zm-19.842-.426h-.734v9.349h.734v-9.349z"/><path d="M317.36 554.932l1.463-2.535 1.463 2.535h-2.926zm1.825-10.323h-.734v2.007h.734v-2.007z"/><path d="M317.36 546.19l1.463 2.535 1.463-2.535h-2.926zm-40.995-72.858h-22.753v.734h22.753v-.734zm-18.682 2.34h-.734v72.398h.734v-72.398z"/><path d="M258.769 547.644l-1.463 2.535-1.463-2.535h2.926zm0-71.547l-1.463-2.535-1.463 2.535h2.926zm-1.086-13.857h-.734v9.349h.734v-9.349z"/><path d="M258.769 471.163l-1.463 2.536-1.463-2.536h2.926zm17.596 79.398H87.69v.734h188.675v-.734zm-18.682 3.945h-.734v9.349h.734v-9.349z"/><path d="M255.858 554.932l1.468-2.535 1.463 2.535h-2.931zm23.771-102.648h-.734v16.657h.734v-16.657zm36.067 6.442h-34.399v.734h34.399v-.734z"/><path d="M315.266 457.634l2.534 1.469-2.534 1.463v-2.932zm-33.538 0l-2.535 1.469 2.535 1.463v-2.932zm-4.575 1.092h-3.812v.734h3.812v-.734z"/><path d="M276.727 457.634l2.535 1.469-2.535 1.463v-2.932zm41.832-5.35h-.734v16.657h.734v-16.657zm5.549 6.442h-3.812v.734h3.812v-.734z"/><path d="M320.726 460.547l-2.534-1.464 2.534-1.463v2.927zm-13.299 77.625h-16.583a.242.242 0 01-.245-.244v-50.137c0-.137.108-.245.245-.245h16.583c.137 0 .245.108.245.245v50.137a.242.242 0 01-.245.244zm-16.338-.489h16.093v-49.647h-16.093v49.647z"/><path d="M298.066 535.622h-5.338a.158.158 0 01-.157-.156v-44.498c0-.084.069-.157.157-.157h5.338c.083 0 .157.068.157.157v44.498a.158.158 0 01-.157.156zm-5.182-.308h5.026v-44.19h-5.026v44.19zm12.409.308h-5.338a.158.158 0 01-.157-.156v-44.498c0-.084.069-.157.157-.157h5.338c.084 0 .157.068.157.157v44.498a.157.157 0 01-.157.156zm-5.181-.308h5.025v-44.19h-5.025v44.19zm17.62-376.592h-33.699v.735h33.699v-.735zm162.898 0h-24.696v.735h24.696v-.735zm118.806 266.103h-.735v145.819h.735V424.825z"/><path d="M601.251 569.998l-2.197 3.803-2.197-3.803h4.394zm0-144.532l-2.197-3.803-2.197 3.803h4.394zm-85.053-133.949h-14.41v.734h14.41v-.734z"/><path d="M502.218 293.337l-2.534-1.463 2.534-1.464v2.927zm13.554 0l2.535-1.463-2.535-1.464v2.927zm-19.616-1.82h-64.58v.734h64.58v-.734z"/><path d="M432.007 293.337l-2.54-1.463 2.54-1.464v2.927zm63.718 0l2.535-1.463-2.535-1.464v2.927zm27.646 3.255a.37.37 0 01-.367-.367v-71.316a.37.37 0 01.367-.367.37.37 0 01.368.367v71.316a.37.37 0 01-.368.367zm34.179 10.842h-19.245v.735h19.245v-.735zm-14.405-10.421h-.734v7.367h.734v-7.367z"/><path d="M544.231 303.954l-1.463 2.536-1.463-2.536h2.926zm0-6.51l-1.463-2.54-1.463 2.54h2.926zm-353.55 110.891h-.734v47.498h.734v-47.498zm9.992 43.303h-7.036v.735h7.036v-.735z"/><path d="M194.067 453.459l-2.534-1.463 2.534-1.464v2.927zm-7.149-1.821h-4.032v.735h4.032v-.735z"/><path d="M186.488 450.547l2.539 1.463-2.539 1.469v-2.932zm-44.836-42.212h-.734v47.498h.734v-47.498zm-3.695 43.303h-7.036v.735h7.036v-.735z"/><path d="M137.532 450.547l2.534 1.463-2.534 1.469v-2.932zm11.176 1.091h-4.032v.735h4.032v-.735z"/><path d="M145.106 453.459l-2.534-1.463 2.534-1.464v2.927zm279.81-216.323h-7.75v.734h7.75v-.734z"/><path d="M424.491 238.957l2.534-1.464-2.534-1.463v2.927zm3.953-5.11h-.734v63.255h.734v-63.255zm-3.523 57.67h-8.827v.734h8.827v-.734z"/><path d="M424.491 290.425l2.534 1.464-2.534 1.463v-2.927zM537.004 511.09h-93.503a.37.37 0 01-.367-.367v-45.096c0-.2.166-.367.367-.367h93.503c.2 0 .367.167.367.367v45.096a.37.37 0 01-.367.367zm-93.136-.734h92.769v-44.361h-92.769v44.361z"/><path d="M488.816 465.627h-.734v45.096h.734v-45.096z"/><path d="M537.004 489.519H443.5v.734h93.504v-.734zm-2.75-1.532H490.68a.121.121 0 01-.122-.123v-19.358c0-.069.054-.123.122-.123h43.574c.068 0 .122.054.122.123v19.358a.121.121 0 01-.122.123zm-43.451-.245h43.328v-19.114h-43.328v19.114zm-4.58.245H446.25a.121.121 0 01-.122-.123v-19.358c0-.069.054-.123.122-.123h39.973c.068 0 .122.054.122.123v19.358a.121.121 0 01-.122.123zm-39.85-.245H486.1v-19.114h-39.727v19.114zm87.881 20.225H490.68a.121.121 0 01-.122-.122v-15.933c0-.068.054-.122.122-.122h43.574c.068 0 .122.054.122.122v15.933a.121.121 0 01-.122.122zm-43.451-.245h43.328v-15.687h-43.328v15.687zm-4.58.245H446.25a.121.121 0 01-.122-.122v-15.933c0-.068.054-.122.122-.122h39.973c.068 0 .122.054.122.122v15.933a.121.121 0 01-.122.122zm-39.85-.245H486.1v-15.687h-39.727v15.687zM185.431 390.2l3.88 10.739h1.933l-3.88-10.739h-1.933zm16.71 0l3.88 10.739h1.933l-3.88-10.739h-1.933zm-8.353 0l3.876 10.739h1.932l-3.875-10.739h-1.933zm18.643 0h-1.933l3.876 10.739h1.933l-3.876-10.739zm36.156 7.572l-2.735-7.572h-1.933l3.024 8.374c.376-.44.924-.744 1.644-.802zm6.738-4.474l-1.121-3.098h-1.933l1.351 3.744a2.616 2.616 0 011.703-.646zM101.88 390.2l3.876 10.739h1.932l-3.875-10.739h-1.933zm131.137 10.739l-3.876-10.739h-1.932l3.875 10.739h1.933zm-8.353 0l-3.88-10.739h-1.928l3.875 10.739h1.933zM86.863 390.2v4.694l2.183 6.045h1.932L87.103 390.2h-.24zm154.511 10.739l-3.875-10.739h-1.933l3.875 10.739h1.933zm133.686 0l-3.88-10.739h-1.933l3.88 10.739h1.933zM93.523 390.2l3.88 10.739h1.933l-3.88-10.739h-1.933zm273.18 10.739l-3.876-10.739h-1.933l3.876 10.739h1.933zm-18.316-2.169c.309 0 .602.059.881.157l-3.151-8.732h-1.933l3.161 8.751a3.149 3.149 0 011.047-.176h-.005zm9.963 2.169l-3.88-10.739h-1.933l3.88 10.739h1.933zM143.658 390.2l3.875 10.739h1.933l-3.875-10.739h-1.933zm8.353 0l3.88 10.739h1.933l-3.881-10.739h-1.932zm16.71 0l3.88 10.739h1.933l-3.88-10.739h-1.933zm-33.42 0l3.875 10.739h1.933l-3.876-10.739h-1.932zm25.067 0l3.876 10.739h1.932l-3.875-10.739h-1.933zm-33.425 0l3.88 10.739h1.933l-3.88-10.739h-1.933zm-16.71 0l3.88 10.739h1.933l-3.88-10.739h-1.933zm8.357 0l3.876 10.739h1.933l-3.876-10.739h-1.933zm58.488 0l3.876 10.739h1.932l-3.875-10.739h-1.933zm309.145 0l3.875 10.739h1.933l-3.876-10.739h-1.932zm-24.858 46.872l3.656 10.122h1.927l-3.65-10.122h-1.933zm25.068 0l3.65 10.122h1.933l-3.65-10.122h-1.933zm8.353 0l3.655 10.122h1.933l-3.656-10.122h-1.932zm-.211-46.872l3.88 10.739h1.933l-3.875-10.739h-1.938zm-33.42 0l3.88 10.739h1.933l-3.88-10.739h-1.933zm8.568 46.872l3.65 10.122h1.933l-3.65-10.122h-1.933zm8.353 0l3.655 10.122h1.933l-3.656-10.122h-1.932zm-8.563-46.872l3.875 10.739h1.933l-3.876-10.739h-1.932zm8.352 0l3.88 10.739h1.933l-3.88-10.739h-1.933zm75.408 46.872l3.656 10.122h1.928l-3.651-10.122h-1.933zm-16.71 0l3.656 10.122h1.927l-3.65-10.122h-1.933zm8.353 0l3.655 10.122h1.933l-3.655-10.122h-1.933zm-25.063 0l3.651 10.122h1.932l-3.65-10.122h-1.933zm-8.357 0l3.655 10.122h1.933l-3.655-10.122h-1.933zm16.71 0l3.655 10.122h1.933l-3.655-10.122h-1.933zm-25.063 0l3.65 10.122h1.933l-3.65-10.122h-1.933zm-.21-46.872l3.875 10.739h1.938l-3.88-10.739h-1.933zm-125.329 0l3.876 10.739h1.933l-3.876-10.739h-1.933zm8.353 0l3.88 10.739h1.933l-3.88-10.739h-1.933zm8.358 0l3.875 10.739h1.933l-3.876-10.739h-1.932zm8.352 0l3.88 10.739h1.933l-3.875-10.739h-1.938zm50.135 0l3.876 10.739h1.933l-3.876-10.739h-1.933zm-8.357 0l3.88 10.739h1.933l-3.88-10.739h-1.933zm-8.353 0l3.876 10.739h1.932l-3.875-10.739h-1.933zm-25.067 0l3.875 10.739h1.938l-3.881-10.739h-1.932zm41.983 46.872l3.655 10.122h1.933l-3.655-10.122h-1.933zm-8.353 0l3.655 10.122h1.928l-3.65-10.122h-1.933zM419.377 390.2l3.881 10.739h1.932l-3.875-10.739h-1.938zm8.358 0l3.875 10.739h1.938l-3.88-10.739h-1.933zm8.563 46.872l3.655 10.122h1.933l-3.655-10.122h-1.933zm28.918-299.304h-.734v46.539h.734v-46.539z"/><path d="M462.667 138.409l2.192-3.803 2.197 3.803h-4.389zm0 45.257l2.192 3.803 2.197-3.803h-4.389zm-159.389-45.898h-.735v46.539h.735v-46.539z"/><path d="M300.728 138.409l2.192-3.803 2.197 3.803h-4.389zm0 45.257l2.192 3.803 2.197-3.803h-4.389z"/></g><defs><clipPath id="clip0_133_3698"><path fill="#fff" transform="translate(0 120)" d="M0 0h648v453.801H0z"/></clipPath></defs></svg>