<svg width="53.036" height="79.972" fill="none" xmlns="http://www.w3.org/2000/svg"><path d="M45.12 0H7.917C3.55 0 0 3.556 0 7.929v25.289l26.518 26.543 26.518-26.543V7.928c0-4.372-3.55-7.928-7.915-7.928zM26.519 40.07a4.91 4.91 0 00-4.903 4.91v6.314l-4.31-4.317v-24.63H35.73v24.63l-4.31 4.317V44.98a4.91 4.91 0 00-4.903-4.911zm.019-27.685l7.433 7.446H19.112l7.434-7.446h-.01zM15.544 19.83H4.3L21.569 2.525h11.243L15.544 19.821v.01zM2.52 22.356h12.263v5.236H2.52v-5.236zm35.731 1.764l10.16 10.175-10.16 10.166V24.11v.009zm-9.927-13.518l8.055-8.077h1.993l12.151 12.171v17.482l-.324.325-21.875-21.91v.01zm22.19-2.664v3.194L41.94 2.525h3.189c2.975 0 5.394 2.423 5.394 5.404l-.009.009zm-42.6-5.413H18L2.521 18.04V7.929c0-2.98 2.42-5.404 5.395-5.404zM2.522 30.108h12.263v14.344L2.52 32.178v-2.07zM24.145 53.81v-8.838a2.383 2.383 0 114.765 0v8.838l-2.383 2.386-2.382-2.377v-.01z" fill="#FFF"/><path d="M26.518 25.559a4.91 4.91 0 00-4.903 4.911 4.91 4.91 0 004.903 4.911 4.91 4.91 0 004.903-4.911 4.91 4.91 0 00-4.903-4.911zm0 7.288a2.383 2.383 0 01-2.382-2.386 2.383 2.383 0 114.764 0 2.383 2.383 0 01-2.382 2.386zm25.814 20.341a1.125 1.125 0 00-1.242.25L26.564 78.023a1.142 1.142 0 00.806 1.95h24.526c.63 0 1.14-.51 1.14-1.142V54.246c0-.464-.278-.882-.704-1.058zm-.436 25.781H27.371c-.074 0-.111-.046-.12-.083-.02-.037-.02-.093.027-.149l24.526-24.584s.064-.037.092-.037c.019 0 .037 0 .056.01.037.018.083.046.083.12v3.528h-2.048c-.278 0-.5.223-.5.502 0 .278.222.5.5.5h2.048v.8h-1.158c-.279 0-.5.222-.5.5 0 .28.221.502.5.502h1.158v.798h-2.048c-.278 0-.5.223-.5.502 0 .278.222.501.5.501h2.048v.799h-1.158c-.279 0-.5.222-.5.5 0 .28.221.502.5.502h1.158v.798h-2.048c-.278 0-.5.223-.5.502 0 .278.222.501.5.501h2.048v.799h-1.158c-.279 0-.5.222-.5.501 0 .278.221.501.5.501h1.158v.799h-2.048c-.278 0-.5.223-.5.501 0 .279.222.501.5.501h2.048v.799h-1.158c-.279 0-.5.223-.5.501 0 .279.221.502.5.502h1.158v.798h-2.048c-.278 0-.5.223-.5.501 0 .279.222.502.5.502h2.048v.798h-1.158c-.279 0-.5.223-.5.501 0 .279.221.502.5.502h1.158v.798h-2.048c-.278 0-.5.223-.5.501 0 .279.222.502.5.502h2.048v1.94c0 .074-.055.13-.13.13l-.009.111z" fill="#FFF"/><path d="M46.835 65.907a.682.682 0 00-.75.148l-7.072 7.093a.685.685 0 00-.149.752c.111.26.352.427.64.427h7.072c.38 0 .686-.306.686-.686v-7.094a.697.697 0 00-.427-.64zm-.584 7.409h-5.978l5.978-5.998v5.998zM7.647 64.654H1.066v-1.839h1.316a.528.528 0 000-1.058H.528a.523.523 0 00-.528.53v14.89a2.795 2.795 0 002.79 2.795h9.714a2.795 2.795 0 002.79-2.794v-4.865c0-4.224-3.43-7.66-7.647-7.66zm6.58 12.514c0 .957-.778 1.736-1.733 1.736H2.79c-.955 0-1.733-.78-1.733-1.736V65.712h6.58c3.634 0 6.581 2.962 6.581 6.592v4.864h.01z" fill="#FFF"/><path d="M7.647 68.126a4.185 4.185 0 00-4.18 4.187 4.185 4.185 0 004.18 4.187 4.185 4.185 0 004.18-4.187 4.185 4.185 0 00-4.18-4.187zm0 7.316a3.118 3.118 0 01-3.115-3.12c0-1.717 1.4-3.12 3.115-3.12a3.124 3.124 0 013.114 3.12c0 1.718-1.4 3.12-3.114 3.12zM23.478 61.73L5.802 44.014a1.224 1.224 0 00-1.724 0L.371 47.73a1.217 1.217 0 00-.362.863c0 .325.13.632.362.864L18.046 67.16a1.23 1.23 0 001.724 0l3.708-3.713a1.217 1.217 0 000-1.727v.01zm-.714 1.011l-3.707 3.714a.207.207 0 01-.297 0L1.084 48.74a.217.217 0 01-.064-.149c0-.027 0-.093.064-.148l3.708-3.714s.093-.065.148-.065c.056 0 .112.019.149.065l.843.845-1.455 1.458a.5.5 0 00-.148.352c0 .121.046.26.148.353a.542.542 0 00.352.149c.12 0 .26-.047.352-.149l1.455-1.457.501.501-.825.826a.5.5 0 00-.148.353c0 .12.046.26.148.353a.542.542 0 00.352.148c.12 0 .26-.046.353-.148l.824-.827.566.567-1.455 1.457a.506.506 0 00-.149.362c0 .13.047.26.149.353a.499.499 0 00.713 0l1.456-1.457.565.566-.825.826a.5.5 0 00-.148.353c0 .12.046.26.148.353a.542.542 0 00.352.148c.12 0 .26-.046.352-.148l.825-.826.566.566L9.5 52.065a.5.5 0 000 .714.504.504 0 00.361.149.47.47 0 00.352-.149l1.455-1.457.566.566-.825.826a.5.5 0 00-.148.353c0 .12.046.26.148.353a.542.542 0 00.352.148c.12 0 .26-.046.352-.148l.825-.826.566.566-1.456 1.458a.5.5 0 00-.148.352.504.504 0 00.51.51.47.47 0 00.352-.147l1.455-1.458.566.566-.825.826a.5.5 0 00-.148.353c0 .121.046.26.148.353a.542.542 0 00.352.149c.12 0 .26-.047.352-.149l.825-.826.566.566-1.456 1.458a.501.501 0 00-.148.352c0 .121.046.26.148.353a.542.542 0 00.353.149c.12 0 .26-.047.352-.149l1.455-1.457.566.566-.826.826a.501.501 0 00-.148.353c0 .12.047.26.148.353a.5.5 0 00.714 0l.825-.826.566.566-1.456 1.458a.501.501 0 00-.148.352c0 .121.046.26.148.353a.542.542 0 00.353.149c.12 0 .26-.047.352-.149l1.455-1.458.565.567-.825.826a.5.5 0 00-.148.353c0 .12.046.26.148.353a.499.499 0 00.714 0l.825-.827.566.567-1.456 1.457a.5.5 0 00-.148.353c0 .12.046.26.148.353a.541.541 0 00.352.148c.121 0 .26-.046.353-.148l1.455-1.458.843.845c.056.056.065.12.065.149 0 .028 0 .093-.065.148l.065.093zm29.531-17.073l-1.873-1.876a1.933 1.933 0 00-2.743 0l-2.753 2.758a.903.903 0 000 1.262.87.87 0 00.445.242h.065c.065.037.13.074.185.13a.426.426 0 010 .603l-.25.25-6.766 6.778a2.52 2.52 0 00-1.956.195.677.677 0 00-.334-.037.824.824 0 00-.491.241l-.704.706a.81.81 0 00-.241.576.7.7 0 00.204.501l3.021 3.027c.14.139.315.204.5.204a.839.839 0 00.575-.242l.705-.705a.792.792 0 00.204-.826 2.54 2.54 0 00.194-1.96l6.414-6.424.353-.353.25-.25a.47.47 0 01.306-.121.453.453 0 01.426.343l.028.158.018.019a.882.882 0 00.825.557.882.882 0 00.63-.26l2.754-2.757a1.95 1.95 0 000-2.74h.009zM38.53 56.864c.148.065.296.167.417.297.12.13.222.27.296.428.158.334.186.696.102 1.03l-1.854-1.857a1.523 1.523 0 011.03.102h.009zm.102 3.25l-2.624-2.628.39-.39 2.623 2.628-.39.39zm1.149-3.528s-.074-.093-.111-.13c-.047-.047-.093-.074-.14-.112l6.21-6.22.25.25-6.21 6.221v-.01zM51.59 47.7l-2.604 2.609a1.453 1.453 0 00-1.363-.975c-.333 0-.649.111-.899.316l-.26-.26a1.453 1.453 0 00-.092-1.931 1.532 1.532 0 00-.556-.353l2.604-2.609a.933.933 0 011.316 0l1.873 1.875a.92.92 0 01.269.66.92.92 0 01-.27.659l-.018.009zM34.378 61.887a.491.491 0 00-.519-.12l-4.393 1.466s-.019.019-.028.019c-.056.028-.111.055-.148.092 0 0-.01 0-.019.01l-9.945 9.962a2.586 2.586 0 000 3.657 2.565 2.565 0 003.652 0l9.945-9.961s0-.019.018-.019a.535.535 0 00.102-.158v-.009l1.465-4.41a.512.512 0 00-.12-.52l-.01-.009zm-10.715 12.96L21.44 72.62l7.943-7.956.362 1.151-5.469 5.478a.51.51 0 000 .715.499.499 0 00.352.148c.12 0 .26-.046.353-.148l5.468-5.478 1.15.362-7.944 7.956h.01zm-3.642 1.42a1.582 1.582 0 010-2.227l.704-.706 2.225 2.228-.705.706c-.593.594-1.631.594-2.224 0zm12.207-10.23l-1.511-.474-.473-1.513 2.975-.993-.991 2.99v-.01z" fill="#FFF"/></svg>